<svg xmlns="http://www.w3.org/2000/svg" width="119" height="140.442" viewBox="0 0 119 140.442">
    <defs>
        <style>
            .prefix__cls-1{fill:#fff}
        </style>
    </defs>
    <g id="prefix__icone" transform="translate(-1504 -2276.921)">
        <path id="prefix__Path_13" d="M1513.338 2361.017a1.343 1.343 0 0 1-1.52 1.52h-6.241a1.5 1.5 0 0 1-1.52-1.52v-36.966a1.5 1.5 0 0 1 1.52-1.52h6.241a1.344 1.344 0 0 1 1.52 1.52v2.961a23.209 23.209 0 0 1 5.321-3.321 14.161 14.161 0 0 1 5.881-1.32 11.875 11.875 0 0 1 5.721 1.6 13.227 13.227 0 0 1 4.76 4.4 21.787 21.787 0 0 1 6.241-4.4 16.547 16.547 0 0 1 7.042-1.6 13.969 13.969 0 0 1 5.16.96 12.6 12.6 0 0 1 4.241 2.72 13.392 13.392 0 0 1 2.88 4.2 13.2 13.2 0 0 1 1.08 5.4v25.364a1.343 1.343 0 0 1-1.519 1.52h-6.246a1.5 1.5 0 0 1-1.52-1.52v-22.323a7.947 7.947 0 0 0-1.44-5.081 5.11 5.11 0 0 0-4.241-1.8 8.808 8.808 0 0 0-3.4.681 9.528 9.528 0 0 0-2.88 1.84 9.078 9.078 0 0 0-2 2.76 7.74 7.74 0 0 0-.759 3.361l-.16 20.563a1.344 1.344 0 0 1-1.521 1.52h-6.24a1.5 1.5 0 0 1-1.521-1.52v-22.323a7.948 7.948 0 0 0-1.44-5.081 5.109 5.109 0 0 0-4.241-1.8 8.8 8.8 0 0 0-3.4.681 9.5 9.5 0 0 0-2.88 1.84 9.045 9.045 0 0 0-2 2.76 7.727 7.727 0 0 0-.76 3.361z" class="prefix__cls-1" data-name="Path 13"/>
        <path id="prefix__Path_14" d="M1568.238 2324.051a1.543 1.543 0 0 1 .4-1.08 1.339 1.339 0 0 1 1.04-.44H1576a1.5 1.5 0 0 1 1.52 1.52v36.966a1.5 1.5 0 0 1-1.52 1.52h-6.321a1.335 1.335 0 0 1-1.04-.44 1.539 1.539 0 0 1-.4-1.08z" class="prefix__cls-1" data-name="Path 14"/>
        <path id="prefix__Path_15" d="M1582.071 2302.492l-6.713-6.713 6.713-6.712a7.141 7.141 0 0 0 0-10.069 7.141 7.141 0 0 0-10.069 0l-6.713 6.713-7.6 7.6a3.5 3.5 0 0 0 0 4.945l7.6 7.6 6.713 6.713a7.141 7.141 0 0 0 10.069 0 7.141 7.141 0 0 0 0-10.077z" data-name="Path 15" style="fill:#e9444b"/>
        <path id="prefix__Path_16" d="M1622.979 2374.266c0-.006-.025-16.378-.025-17.65v-32.565a1.521 1.521 0 0 0-1.52-1.52h-6.241a1.5 1.5 0 0 0-1.52 1.52v2.4a20.9 20.9 0 0 0-5.121-2.92 14.6 14.6 0 0 0-5.441-1.16 18.272 18.272 0 0 0-7.561 1.56 19.028 19.028 0 0 0-6.041 4.241 19.251 19.251 0 0 0-4 6.361 22.947 22.947 0 0 0 0 16 19.683 19.683 0 0 0 4 6.4 18.064 18.064 0 0 0 6.081 4.241 19.156 19.156 0 0 0 7.681 1.52 13.008 13.008 0 0 0 5.441-1.24 29.691 29.691 0 0 0 4.961-2.841v2.481c0 .246-.145 13.074-.159 13.3-1.206 18.727-23.174 33.4-50.013 33.4s-48.808-14.669-50.014-33.4a2.325 2.325 0 0 0-2.3-2.185h-4.869a2.324 2.324 0 0 0-2.312 2.45c.613 11.477 7 22.184 17.975 30.149 11.15 8.091 25.9 12.548 41.522 12.548s30.369-4.457 41.521-12.548c10.977-7.965 17.361-18.672 17.976-30.149a2.422 2.422 0 0 0-.021-.393zm-10.347-27.532a9.808 9.808 0 0 1-1.88 3.4 8.849 8.849 0 0 1-3.08 2.28 9.9 9.9 0 0 1-4.161.841 9.424 9.424 0 0 1-4.04-.841 9.109 9.109 0 0 1-3.081-2.32 10.962 10.962 0 0 1-2-3.441 12.081 12.081 0 0 1-.72-4.2 10.575 10.575 0 0 1 2.72-7.441 9.126 9.126 0 0 1 7.041-2.961 9.252 9.252 0 0 1 3.961.841 9.816 9.816 0 0 1 3.12 2.28 10.343 10.343 0 0 1 2.04 3.32 11.193 11.193 0 0 1 .721 4.041 13.434 13.434 0 0 1-.641 4.201z" class="prefix__cls-1" data-name="Path 16"/>
    </g>
</svg>
