<svg xmlns="http://www.w3.org/2000/svg" width="35.232" height="41.581" viewBox="0 0 35.232 41.581">
    <defs>
        <style>
            .prefix__cls-1{fill:#fff}
        </style>
    </defs>
    <g id="prefix__icone" transform="translate(-1504 -2276.921)">
        <path id="prefix__Path_13" d="M1506.8 2333.813a.4.4 0 0 1-.45.45h-1.848a.445.445 0 0 1-.45-.45v-10.945a.444.444 0 0 1 .45-.45h1.848a.4.4 0 0 1 .45.45v.877a6.869 6.869 0 0 1 1.575-.983 4.193 4.193 0 0 1 1.741-.391 3.515 3.515 0 0 1 1.694.474 3.916 3.916 0 0 1 1.409 1.3 6.45 6.45 0 0 1 1.848-1.3 4.9 4.9 0 0 1 2.085-.474 4.137 4.137 0 0 1 1.528.284 3.73 3.73 0 0 1 1.256.805 3.964 3.964 0 0 1 .853 1.244 3.908 3.908 0 0 1 .32 1.6v7.51a.4.4 0 0 1-.45.45h-1.848a.445.445 0 0 1-.45-.45v-6.614a2.354 2.354 0 0 0-.426-1.5 1.513 1.513 0 0 0-1.256-.533 2.609 2.609 0 0 0-1.007.2 2.824 2.824 0 0 0-.853.545 2.689 2.689 0 0 0-.593.817 2.292 2.292 0 0 0-.225 1l-.047 6.088a.4.4 0 0 1-.45.45h-1.847a.446.446 0 0 1-.45-.45v-6.617a2.354 2.354 0 0 0-.426-1.5 1.513 1.513 0 0 0-1.256-.533 2.6 2.6 0 0 0-1.007.2 2.817 2.817 0 0 0-.853.545 2.678 2.678 0 0 0-.592.817 2.289 2.289 0 0 0-.225 1z" class="prefix__cls-1" data-name="Path 13" transform="translate(-.04 -31.993)"/>
        <path id="prefix__Path_14" d="M1568.238 2322.981a.456.456 0 0 1 .118-.32.4.4 0 0 1 .308-.13h1.872a.445.445 0 0 1 .45.45v10.945a.445.445 0 0 1-.45.45h-1.872a.4.4 0 0 1-.308-.13.455.455 0 0 1-.118-.32z" class="prefix__cls-1" data-name="Path 14" transform="translate(-45.219 -32.106)"/>
        <path id="prefix__Path_15" d="M1564.19 2284.492l-1.988-1.988 1.988-1.987a2.114 2.114 0 0 0 0-2.981 2.114 2.114 0 0 0-2.981 0l-1.988 1.988-2.249 2.249a1.036 1.036 0 0 0 0 1.464l2.249 2.249 1.988 1.987a2.114 2.114 0 0 0 2.981 0 2.114 2.114 0 0 0 0-2.981z" data-name="Path 15" transform="translate(-37.075)" style="fill:#e9444b"/>
        <path id="prefix__Path_16" d="M1539.227 2337.736l-.007-5.226v-9.642a.45.45 0 0 0-.45-.45h-1.848a.445.445 0 0 0-.45.45v.711a6.188 6.188 0 0 0-1.516-.865 4.325 4.325 0 0 0-1.611-.343 5.406 5.406 0 0 0-2.239.462 5.633 5.633 0 0 0-1.789 1.256 5.7 5.7 0 0 0-1.185 1.883 6.795 6.795 0 0 0 0 4.738 5.829 5.829 0 0 0 1.185 1.9 5.347 5.347 0 0 0 1.8 1.256 5.67 5.67 0 0 0 2.274.45 3.852 3.852 0 0 0 1.611-.367 8.781 8.781 0 0 0 1.469-.841v.735c0 .073-.043 3.871-.047 3.939-.357 5.544-6.861 9.888-14.807 9.888s-14.451-4.343-14.808-9.888a.688.688 0 0 0-.682-.647h-1.442a.688.688 0 0 0-.684.725 11.931 11.931 0 0 0 5.322 8.926 22.2 22.2 0 0 0 24.587 0 11.934 11.934 0 0 0 5.322-8.926.7.7 0 0 0-.005-.124zm-3.063-8.152a2.905 2.905 0 0 1-.557 1.007 2.62 2.62 0 0 1-.912.675 2.929 2.929 0 0 1-1.232.249 2.788 2.788 0 0 1-1.2-.249 2.7 2.7 0 0 1-.912-.687 3.245 3.245 0 0 1-.592-1.019 3.575 3.575 0 0 1-.213-1.243 3.13 3.13 0 0 1 .805-2.2 2.7 2.7 0 0 1 2.085-.877 2.74 2.74 0 0 1 1.173.249 2.9 2.9 0 0 1 .924.675 3.061 3.061 0 0 1 .6.983 3.312 3.312 0 0 1 .214 1.2 3.976 3.976 0 0 1-.184 1.237z" class="prefix__cls-1" data-name="Path 16" transform="translate(0 -31.993)"/>
    </g>
</svg>
