<svg xmlns="http://www.w3.org/2000/svg" width="177.125" height="56.048" viewBox="0 0 177.125 56.048">
    <defs>
        <style>
            .prefix__cls-1{fill:#fff}
        </style>
    </defs>
    <g id="prefix__Group_51" data-name="Group 51" transform="translate(-836.205 -185.458)">
        <g id="prefix__Group_1" data-name="Group 1" transform="translate(836.205 197.692)">
            <path id="prefix__Path_1" d="M1753.161 2102.846a.348.348 0 0 1-.482.105 4.866 4.866 0 0 0-2.664-.853 5.332 5.332 0 0 0 .131 10.632 4.553 4.553 0 0 0 3.182-1.3.346.346 0 0 1 .481 0l1.628 1.577a.352.352 0 0 1-.005.508 7.574 7.574 0 0 1-5.253 2.167c-4.528.033-7.908-3.479-7.974-8.2a8.5 8.5 0 0 1 2.363-5.939 7.439 7.439 0 0 1 5.447-2.4 7.807 7.807 0 0 1 4.278 1.287.348.348 0 0 1 .1.478z" class="prefix__cls-1" data-name="Path 1" transform="translate(-1742.205 -2094.29)"/>
            <path id="prefix__Path_2" d="M1812.429 2099.146a8.279 8.279 0 1 1-7.875 8.27 7.991 7.991 0 0 1 7.875-8.27zm0 13.585a5.332 5.332 0 1 0-4.922-5.316 5.034 5.034 0 0 0 4.922 5.316z" class="prefix__cls-1" data-name="Path 2" transform="translate(-1789.263 -2094.29)"/>
            <path id="prefix__Path_3" d="M1881.255 2115.619h-2.093a.349.349 0 0 1-.349-.349v-15.709a.349.349 0 0 1 .349-.349h2.091a.349.349 0 0 1 .349.349v2.112a8.144 8.144 0 0 1 5.677-2.527 4.955 4.955 0 0 1 4.955 5.218v10.906a.349.349 0 0 1-.349.349h-2.091a.349.349 0 0 1-.349-.349v-9.561c0-2.33-1.05-3.708-3.118-3.708a4.69 4.69 0 0 0-4.66 4.5l-.063 8.776a.349.349 0 0 1-.349.342z" class="prefix__cls-1" data-name="Path 3" transform="translate(-1845.311 -2094.29)"/>
            <path id="prefix__Path_4" d="M1939.236 2084.266h2.932v-4.573a.349.349 0 0 1 .349-.349h2.091a.349.349 0 0 1 .349.349v4.573h3.424a.349.349 0 0 1 .349.349v1.927a.349.349 0 0 1-.349.349h-3.424v13.433a.349.349 0 0 1-.349.349h-2.091a.349.349 0 0 1-.349-.349v-13.433h-2.932a.349.349 0 0 1-.349-.349v-1.927a.349.349 0 0 1 .349-.349z" class="prefix__cls-1" data-name="Path 4" transform="translate(-1890.652 -2079.344)"/>
            <path id="prefix__Path_5" d="M1997.339 2113.322a7.64 7.64 0 0 1-5.152 2.363c-4.529 0-7.81-3.544-7.81-8.269a8.116 8.116 0 0 1 7.875-8.27 7.488 7.488 0 0 1 5.086 2.363v-1.948a.349.349 0 0 1 .349-.349h2.091a.349.349 0 0 1 .349.349v15.709a.349.349 0 0 1-.349.349h-2.091a.349.349 0 0 1-.349-.349zm-5.086-.59a5.332 5.332 0 0 0 0-10.632 5.332 5.332 0 0 0 0 10.632z" class="prefix__cls-1" data-name="Path 5" transform="translate(-1924.986 -2094.29)"/>
        </g>
        <path id="prefix__Path_6" d="M2069.726 2103.808a.589.589 0 0 1-.41.262.648.648 0 0 1-.476-.131 4.705 4.705 0 0 0-1.083-.591 3.507 3.507 0 0 0-1.28-.229 3.579 3.579 0 0 0-1.591.345 3.755 3.755 0 0 0-1.214.935 4.229 4.229 0 0 0-.788 1.394 5.116 5.116 0 0 0-.279 1.69 4.585 4.585 0 0 0 .312 1.706 4.432 4.432 0 0 0 .853 1.378 3.772 3.772 0 0 0 1.3.919 3.982 3.982 0 0 0 1.607.328 3.5 3.5 0 0 0 1.493-.328 3.407 3.407 0 0 0 1.2-.919.556.556 0 0 1 .443-.18.757.757 0 0 1 .443.18l1.9 1.838a.468.468 0 0 1 .18.41.76.76 0 0 1-.18.443 7.953 7.953 0 0 1-2.461 1.772 7.141 7.141 0 0 1-3.052.656 8.152 8.152 0 0 1-3.167-.607 7.519 7.519 0 0 1-2.543-1.722 8.064 8.064 0 0 1-1.69-2.609 8.877 8.877 0 0 1-.033-6.366 8.27 8.27 0 0 1 4.1-4.5 7.371 7.371 0 0 1 3.167-.738 7.852 7.852 0 0 1 4.561 1.51.63.63 0 0 1 .263.361.52.52 0 0 1-.1.459z" class="prefix__cls-1" data-name="Path 6" transform="translate(-1144.828 -1896.6)"/>
        <path id="prefix__Path_7" d="M2116.568 2107.418a8.461 8.461 0 0 1 2.313-5.873 7.81 7.81 0 0 1 2.51-1.756 7.607 7.607 0 0 1 3.118-.64 7.494 7.494 0 0 1 3.1.64 7.87 7.87 0 0 1 2.494 1.756 8.182 8.182 0 0 1 1.673 2.625 8.993 8.993 0 0 1 0 6.5 8.166 8.166 0 0 1-1.673 2.625 7.816 7.816 0 0 1-2.51 1.756 7.915 7.915 0 0 1-6.234 0 7.8 7.8 0 0 1-2.511-1.756 8.146 8.146 0 0 1-1.673-2.625 8.609 8.609 0 0 1-.607-3.252zm3.97 0a4.952 4.952 0 0 0 .3 1.723 4.3 4.3 0 0 0 .82 1.395 3.887 3.887 0 0 0 1.247.935 3.608 3.608 0 0 0 1.575.344 3.722 3.722 0 0 0 1.592-.344 3.847 3.847 0 0 0 1.263-.935 4.316 4.316 0 0 0 .82-1.395 5.17 5.17 0 0 0 0-3.445 4.322 4.322 0 0 0-.82-1.395 3.846 3.846 0 0 0-1.263-.935 3.719 3.719 0 0 0-1.592-.345 3.605 3.605 0 0 0-1.575.345 3.885 3.885 0 0 0-1.247.935 4.309 4.309 0 0 0-.82 1.395 4.955 4.955 0 0 0-.299 1.722z" class="prefix__cls-1" data-name="Path 7" transform="translate(-1188.553 -1896.6)"/>
        <path id="prefix__Path_8" d="M2399.953 2107.418a8.457 8.457 0 0 1 2.313-5.873 7.806 7.806 0 0 1 2.51-1.756 7.608 7.608 0 0 1 3.118-.64 7.493 7.493 0 0 1 3.1.64 7.867 7.867 0 0 1 2.494 1.756 8.187 8.187 0 0 1 1.674 2.625 9 9 0 0 1 0 6.5 8.171 8.171 0 0 1-1.674 2.625 7.811 7.811 0 0 1-2.51 1.756 7.916 7.916 0 0 1-6.235 0 7.809 7.809 0 0 1-2.51-1.756 8.148 8.148 0 0 1-1.673-2.625 8.609 8.609 0 0 1-.607-3.252zm3.971 0a4.958 4.958 0 0 0 .3 1.723 4.311 4.311 0 0 0 .82 1.395 3.889 3.889 0 0 0 1.247.935 3.609 3.609 0 0 0 1.575.344 3.719 3.719 0 0 0 1.592-.344 3.843 3.843 0 0 0 1.263-.935 4.316 4.316 0 0 0 .82-1.395 5.174 5.174 0 0 0 0-3.445 4.322 4.322 0 0 0-.82-1.395 3.842 3.842 0 0 0-1.263-.935 3.715 3.715 0 0 0-1.592-.345 3.605 3.605 0 0 0-1.575.345 3.888 3.888 0 0 0-1.247.935 4.317 4.317 0 0 0-.82 1.395 4.96 4.96 0 0 0-.3 1.722z" class="prefix__cls-1" data-name="Path 8" transform="translate(-1402.439 -1896.6)"/>
        <g id="prefix__Group_2" data-name="Group 2" transform="translate(946.269 185.458)">
            <path id="prefix__Path_9" d="M2194.9 2115a.551.551 0 0 1-.623.624h-2.56a.617.617 0 0 1-.623-.624v-15.16a.616.616 0 0 1 .623-.623h2.56a.551.551 0 0 1 .623.623v1.214a9.518 9.518 0 0 1 2.182-1.362 5.808 5.808 0 0 1 2.412-.541 4.869 4.869 0 0 1 2.346.656 5.426 5.426 0 0 1 1.952 1.8 8.935 8.935 0 0 1 2.559-1.8 6.784 6.784 0 0 1 2.888-.656 5.729 5.729 0 0 1 2.116.394 5.161 5.161 0 0 1 1.739 1.116 5.481 5.481 0 0 1 1.181 1.722 5.412 5.412 0 0 1 .443 2.215V2115a.551.551 0 0 1-.623.624h-2.56a.616.616 0 0 1-.623-.624v-9.155a3.261 3.261 0 0 0-.591-2.084 2.1 2.1 0 0 0-1.739-.738 3.613 3.613 0 0 0-1.395.279 3.913 3.913 0 0 0-1.182.755 3.713 3.713 0 0 0-.82 1.132 3.169 3.169 0 0 0-.312 1.378l-.066 8.433a.551.551 0 0 1-.624.624h-2.559a.617.617 0 0 1-.624-.624v-9.155a3.259 3.259 0 0 0-.591-2.084 2.1 2.1 0 0 0-1.739-.738 3.61 3.61 0 0 0-1.394.279 3.9 3.9 0 0 0-1.181.755 3.706 3.706 0 0 0-.821 1.132 3.166 3.166 0 0 0-.312 1.378z" class="prefix__cls-1" data-name="Path 9" transform="translate(-2191.072 -2082.058)"/>
            <path id="prefix__Path_10" d="M2298.421 2100.041a.633.633 0 0 1 .164-.443.548.548 0 0 1 .427-.18h2.592a.616.616 0 0 1 .624.624v15.16a.616.616 0 0 1-.624.623h-2.592a.547.547 0 0 1-.427-.18.631.631 0 0 1-.164-.443z" class="prefix__cls-1" data-name="Path 10" transform="translate(-2272.077 -2082.26)"/>
            <path id="prefix__Path_11" d="M2295.188 2039.192l-2.555-2.556 2.555-2.555a2.719 2.719 0 0 0 0-3.833 2.718 2.718 0 0 0-3.833 0l-2.556 2.556-2.892 2.892a1.332 1.332 0 0 0 0 1.883l2.892 2.892 2.556 2.555a2.718 2.718 0 0 0 3.833 0 2.719 2.719 0 0 0 0-3.834z" data-name="Path 11" transform="translate(-2262.337 -2029.457)" style="fill:#e9444b"/>
            <path id="prefix__Path_12" d="M2239.794 2120.431l-.01-7.238v-13.355a.623.623 0 0 0-.624-.623h-2.56a.616.616 0 0 0-.623.623v.985a8.557 8.557 0 0 0-2.1-1.2 5.988 5.988 0 0 0-2.231-.476 7.5 7.5 0 0 0-3.1.64 7.8 7.8 0 0 0-2.477 1.739 7.892 7.892 0 0 0-1.641 2.608 9.415 9.415 0 0 0 0 6.563 8.066 8.066 0 0 0 1.641 2.625 7.4 7.4 0 0 0 2.494 1.739 7.855 7.855 0 0 0 3.15.623 5.329 5.329 0 0 0 2.231-.509 12.159 12.159 0 0 0 2.034-1.165v1.017c0 .1-.059 5.362-.065 5.456-.494 7.68-9.5 13.7-20.511 13.7s-20.016-6.016-20.511-13.7a.953.953 0 0 0-.944-.9h-2a.953.953 0 0 0-.949 1c.252 4.707 2.87 9.1 7.372 12.364a30.747 30.747 0 0 0 34.057 0c4.5-3.267 7.12-7.657 7.372-12.364a.938.938 0 0 0-.005-.152zm-4.243-11.291a4.034 4.034 0 0 1-.771 1.395 3.633 3.633 0 0 1-1.263.935 4.068 4.068 0 0 1-1.706.344 3.874 3.874 0 0 1-1.657-.344 3.74 3.74 0 0 1-1.263-.952 4.5 4.5 0 0 1-.82-1.411 4.959 4.959 0 0 1-.3-1.723 4.339 4.339 0 0 1 1.115-3.052 3.742 3.742 0 0 1 2.888-1.214 3.794 3.794 0 0 1 1.625.345 4.025 4.025 0 0 1 1.279.935 4.234 4.234 0 0 1 .837 1.361 4.594 4.594 0 0 1 .3 1.657 5.522 5.522 0 0 1-.264 1.725z" class="prefix__cls-1" data-name="Path 12" transform="translate(-2191 -2082.058)"/>
        </g>
    </g>
</svg>
