<svg xmlns="http://www.w3.org/2000/svg" id="prefix__Group_104" width="300" height="300" data-name="Group 104" viewBox="0 0 75 75">
    <defs>
        <style>
            .prefix__cls-2{fill:#622ab1}
        </style>
    </defs>
    <g id="prefix__Group_103" data-name="Group 103">
        <path id="prefix__Rectangle_30" d="M0 0H75V75H0z" data-name="Rectangle 30" style="fill:#532594"/>
        <path id="prefix__Path_154" d="M2812.207 2931.886h-14.958a2 2 0 0 0-2 2 2 2 0 0 0 2 2l-.2-.01h10.495a2.2 2.2 0 0 1 2.194 2.194 2.2 2.2 0 0 1-2.194 2.194l-.052-.009h-14.958L2792.5 2911h23.805a2.647 2.647 0 0 1 2.639 2.639 2.647 2.647 0 0 1-2.639 2.639h-15.464a1.778 1.778 0 0 0-1.773 1.772 1.778 1.778 0 0 0 1.773 1.773h15.464l-.168-.008h3.083a2.2 2.2 0 0 1 2.194 2.194 2.2 2.2 0 0 1-2.194 2.194l.061-.009-10.189.056a1.223 1.223 0 0 0-1.219 1.22 1.223 1.223 0 0 0 1.219 1.219l-.086-.024 3.2.112a2.278 2.278 0 0 1 2.414 2.414 2.647 2.647 0 0 1-2.639 2.639" class="prefix__cls-2" data-name="Path 154" transform="translate(-2792.5 -2907.375)"/>
        <g id="prefix__Group_102" data-name="Group 102" transform="translate(6.103 4.563)">
            <path id="prefix__Path_156" d="M1675.4 2607.017a2.548 2.548 0 0 1 .7-1.769 2.355 2.355 0 0 1 .756-.529 2.291 2.291 0 0 1 .939-.192 2.255 2.255 0 0 1 .934.192 2.372 2.372 0 0 1 .751.529 2.463 2.463 0 0 1 .5.791 2.709 2.709 0 0 1 0 1.956 2.464 2.464 0 0 1-.5.791 2.352 2.352 0 0 1-.756.528 2.381 2.381 0 0 1-1.877 0 2.35 2.35 0 0 1-.756-.528 2.458 2.458 0 0 1-.5-.791 2.594 2.594 0 0 1-.191-.978zm1.2 0a1.488 1.488 0 0 0 .089.518 1.287 1.287 0 0 0 .247.42 1.169 1.169 0 0 0 .375.282 1.087 1.087 0 0 0 .474.1 1.121 1.121 0 0 0 .479-.1 1.155 1.155 0 0 0 .38-.282 1.3 1.3 0 0 0 .247-.42 1.554 1.554 0 0 0 0-1.037 1.3 1.3 0 0 0-.247-.42 1.159 1.159 0 0 0-.38-.282 1.121 1.121 0 0 0-.479-.1 1.087 1.087 0 0 0-.474.1 1.172 1.172 0 0 0-.375.282 1.286 1.286 0 0 0-.247.42 1.491 1.491 0 0 0-.096.519z" class="prefix__cls-2" data-name="Path 156" transform="translate(-1641.103 -2604.527)"/>
            <path id="prefix__Path_180" d="M1675.4 2607.017a2.548 2.548 0 0 1 .7-1.769 2.355 2.355 0 0 1 .756-.529 2.291 2.291 0 0 1 .939-.192 2.255 2.255 0 0 1 .934.192 2.372 2.372 0 0 1 .751.529 2.463 2.463 0 0 1 .5.791 2.709 2.709 0 0 1 0 1.956 2.464 2.464 0 0 1-.5.791 2.352 2.352 0 0 1-.756.528 2.381 2.381 0 0 1-1.877 0 2.35 2.35 0 0 1-.756-.528 2.458 2.458 0 0 1-.5-.791 2.594 2.594 0 0 1-.191-.978zm1.2 0a1.488 1.488 0 0 0 .089.518 1.287 1.287 0 0 0 .247.42 1.169 1.169 0 0 0 .375.282 1.087 1.087 0 0 0 .474.1 1.121 1.121 0 0 0 .479-.1 1.155 1.155 0 0 0 .38-.282 1.3 1.3 0 0 0 .247-.42 1.554 1.554 0 0 0 0-1.037 1.3 1.3 0 0 0-.247-.42 1.159 1.159 0 0 0-.38-.282 1.121 1.121 0 0 0-.479-.1 1.087 1.087 0 0 0-.474.1 1.172 1.172 0 0 0-.375.282 1.286 1.286 0 0 0-.247.42 1.491 1.491 0 0 0-.096.519z" class="prefix__cls-2" data-name="Path 180" transform="translate(-1651.917 -2548.295)"/>
            <path id="prefix__Path_183" d="M1675.4 2606.241a1.755 1.755 0 0 1 .48-1.217 1.623 1.623 0 0 1 .52-.364 1.577 1.577 0 0 1 .646-.132 1.553 1.553 0 0 1 .643.132 1.636 1.636 0 0 1 .517.364 1.692 1.692 0 0 1 .347.544 1.865 1.865 0 0 1 0 1.346 1.694 1.694 0 0 1-.347.544 1.625 1.625 0 0 1-.52.364 1.641 1.641 0 0 1-1.292 0 1.622 1.622 0 0 1-.52-.364 1.7 1.7 0 0 1-.347-.544 1.788 1.788 0 0 1-.127-.673zm.823 0a1.024 1.024 0 0 0 .061.357.882.882 0 0 0 .17.289.8.8 0 0 0 .258.194.748.748 0 0 0 .327.072.77.77 0 0 0 .33-.072.793.793 0 0 0 .262-.194.888.888 0 0 0 .17-.289 1.072 1.072 0 0 0 0-.714.888.888 0 0 0-.17-.289.8.8 0 0 0-.262-.194.773.773 0 0 0-.33-.072.752.752 0 0 0-.327.072.807.807 0 0 0-.258.194.882.882 0 0 0-.17.289 1.026 1.026 0 0 0-.064.357z" class="prefix__cls-2" data-name="Path 183" transform="translate(-1630.35 -2549.221)"/>
            <path id="prefix__Path_178" d="M1675.4 2608.78a4.354 4.354 0 0 1 1.19-3.021 4.025 4.025 0 0 1 1.291-.9 3.914 3.914 0 0 1 1.6-.329 3.855 3.855 0 0 1 1.595.329 4.055 4.055 0 0 1 1.283.9 4.2 4.2 0 0 1 .86 1.35 4.624 4.624 0 0 1 0 3.341 4.2 4.2 0 0 1-.86 1.35 4.028 4.028 0 0 1-1.291.9 4.07 4.07 0 0 1-3.207 0 4.021 4.021 0 0 1-1.291-.9 4.2 4.2 0 0 1-.861-1.35 4.436 4.436 0 0 1-.309-1.67zm2.042 0a2.538 2.538 0 0 0 .152.885 2.2 2.2 0 0 0 .422.717 2 2 0 0 0 .641.481 1.855 1.855 0 0 0 .81.177 1.913 1.913 0 0 0 .819-.177 1.98 1.98 0 0 0 .65-.481 2.211 2.211 0 0 0 .422-.717 2.655 2.655 0 0 0 0-1.771 2.221 2.221 0 0 0-.422-.717 1.978 1.978 0 0 0-.65-.481 1.92 1.92 0 0 0-.819-.177 1.862 1.862 0 0 0-.81.177 2 2 0 0 0-.641.481 2.206 2.206 0 0 0-.422.717 2.548 2.548 0 0 0-.155.886z" class="prefix__cls-2" data-name="Path 178" transform="translate(-1648.492 -2588.588)"/>
            <path id="prefix__Path_179" d="M1675.4 2608.78a4.354 4.354 0 0 1 1.19-3.021 4.025 4.025 0 0 1 1.291-.9 3.914 3.914 0 0 1 1.6-.329 3.855 3.855 0 0 1 1.595.329 4.055 4.055 0 0 1 1.283.9 4.2 4.2 0 0 1 .86 1.35 4.624 4.624 0 0 1 0 3.341 4.2 4.2 0 0 1-.86 1.35 4.028 4.028 0 0 1-1.291.9 4.07 4.07 0 0 1-3.207 0 4.021 4.021 0 0 1-1.291-.9 4.2 4.2 0 0 1-.861-1.35 4.436 4.436 0 0 1-.309-1.67zm2.042 0a2.538 2.538 0 0 0 .152.885 2.2 2.2 0 0 0 .422.717 2 2 0 0 0 .641.481 1.855 1.855 0 0 0 .81.177 1.913 1.913 0 0 0 .819-.177 1.98 1.98 0 0 0 .65-.481 2.211 2.211 0 0 0 .422-.717 2.655 2.655 0 0 0 0-1.771 2.221 2.221 0 0 0-.422-.717 1.978 1.978 0 0 0-.65-.481 1.92 1.92 0 0 0-.819-.177 1.862 1.862 0 0 0-.81.177 2 2 0 0 0-.641.481 2.206 2.206 0 0 0-.422.717 2.548 2.548 0 0 0-.155.886z" class="prefix__cls-2" data-name="Path 179" transform="translate(-1672.9 -2567.887)"/>
            <path id="prefix__Path_45" d="M7.478 0A3.111 3.111 0 0 1 7.3 1.029a2.72 2.72 0 0 1-.517.879 2.427 2.427 0 0 1-.8.589 2.342 2.342 0 0 1-1 .217 2.271 2.271 0 0 1-.995-.214 2.457 2.457 0 0 1-.788-.592 2.7 2.7 0 0 1-.517-.879A3.1 3.1 0 0 1 2.5 0H0a5.424 5.424 0 0 0 .38 1.991 5.139 5.139 0 0 0 1.055 1.654 4.912 4.912 0 0 0 1.582 1.106 4.79 4.79 0 0 0 1.964.4 4.791 4.791 0 0 0 1.964-.4 4.921 4.921 0 0 0 1.582-1.106 5.144 5.144 0 0 0 1.054-1.654A5.414 5.414 0 0 0 9.961 0z" class="prefix__cls-2" data-name="Path 45" transform="rotate(-90 62.382 2.818)"/>
            <path id="prefix__Path_181" d="M7.478 0A3.111 3.111 0 0 1 7.3 1.029a2.72 2.72 0 0 1-.517.879 2.427 2.427 0 0 1-.8.589 2.342 2.342 0 0 1-1 .217 2.271 2.271 0 0 1-.995-.214 2.457 2.457 0 0 1-.788-.592 2.7 2.7 0 0 1-.517-.879A3.1 3.1 0 0 1 2.5 0H0a5.424 5.424 0 0 0 .38 1.991 5.139 5.139 0 0 0 1.055 1.654 4.912 4.912 0 0 0 1.582 1.106 4.79 4.79 0 0 0 1.964.4 4.791 4.791 0 0 0 1.964-.4 4.921 4.921 0 0 0 1.582-1.106 5.144 5.144 0 0 0 1.054-1.654A5.414 5.414 0 0 0 9.961 0z" class="prefix__cls-2" data-name="Path 181" transform="rotate(180 4.98 32.943)"/>
            <path id="prefix__Path_157" d="M1458.881 2814a3.117 3.117 0 0 1-.182 1.029 2.718 2.718 0 0 1-.517.879 2.434 2.434 0 0 1-.8.589 2.348 2.348 0 0 1-1 .217 2.276 2.276 0 0 1-.993-.217 2.464 2.464 0 0 1-.785-.589 2.7 2.7 0 0 1-.517-.879 3.1 3.1 0 0 1-.182-1.029h-2.5a5.428 5.428 0 0 0 .38 1.991 5.14 5.14 0 0 0 1.055 1.654 4.911 4.911 0 0 0 1.582 1.106 4.98 4.98 0 0 0 3.929 0 4.92 4.92 0 0 0 1.582-1.106 5.143 5.143 0 0 0 1.054-1.654 5.416 5.416 0 0 0 .38-1.991z" class="prefix__cls-2" data-name="Path 157" transform="translate(-1425.45 -2775.823)"/>
            <path id="prefix__Path_182" d="M7.478 0A3.111 3.111 0 0 1 7.3 1.029a2.72 2.72 0 0 1-.517.879 2.427 2.427 0 0 1-.8.589 2.342 2.342 0 0 1-1 .217 2.271 2.271 0 0 1-.995-.214 2.457 2.457 0 0 1-.788-.592 2.7 2.7 0 0 1-.517-.879A3.1 3.1 0 0 1 2.5 0H0a5.424 5.424 0 0 0 .38 1.991 5.139 5.139 0 0 0 1.055 1.654 4.912 4.912 0 0 0 1.582 1.106 4.79 4.79 0 0 0 1.964.4 4.791 4.791 0 0 0 1.964-.4 4.921 4.921 0 0 0 1.582-1.106 5.144 5.144 0 0 0 1.054-1.654A5.414 5.414 0 0 0 9.961 0z" class="prefix__cls-2" data-name="Path 182" transform="rotate(180 31.861 21.666)"/>
        </g>
        <path id="prefix__Path_177" d="M15.356 20.886H3.7a1.825 1.825 0 0 0-1.557 2 1.825 1.825 0 0 0 1.557 2l-.157-.009h8.178a2 2 0 0 1 1.71 2.194 2 2 0 0 1-1.71 2.194l-.04-.009H.025L0 0h18.55a2.41 2.41 0 0 1 2.056 2.639 2.41 2.41 0 0 1-2.056 2.639H6.5A1.619 1.619 0 0 0 5.119 7.05 1.619 1.619 0 0 0 6.5 8.823h12.05l-.131-.008h2.4a2 2 0 0 1 1.71 2.194 2 2 0 0 1-1.71 2.194l.047-.009-7.939.056a1.114 1.114 0 0 0-.95 1.219 1.114 1.114 0 0 0 .95 1.219l-.067-.025 2.494.112c1.131 0 1.881.963 1.881 2.414a2.41 2.41 0 0 1-2.056 2.639" class="prefix__cls-2" data-name="Path 177" transform="rotate(180 37.5 16.443)"/>
    </g>
</svg>
