<svg xmlns="http://www.w3.org/2000/svg" width="248.542" height="242.836" viewBox="0 0 248.542 242.836">
  <g id="prefix__wiz1">
    <circle id="prefix__Ellipse_12" cx="107.89" cy="107.89" r="107.89" fill="#9258ed" data-name="Ellipse 12" transform="translate(32.77 26.58)"/>
    <path id="prefix__Path_114" d="M115.75 86.33l-6.82 45.05A12.51 12.51 0 0 0 126.28 145a12.82 12.82 0 0 0 5-3.79" fill="#6138a0" data-name="Path 114"/>
    <path id="prefix__Path_115" d="M235 187.5a71.2 71.2 0 0 0-46.6-17.37h-13.54c-36.87 0-67.47 30.87-71.21 66.8 11.95 4.62 24.93 5.91 38.51 5.91 39.76-.01 74.42-23.1 92.84-55.34z" fill="#6138a0" data-name="Path 115"/>
    <g id="prefix__Group_43" data-name="Group 43">
        <path id="prefix__Path_116" d="M137.7 242.35A124.2 124.2 0 0 1 41.58 197l25.75-21.24A91 91 0 0 0 137.7 209z" fill="#6138a0" data-name="Path 116"/>
    </g>
    <path id="prefix__Path_117" d="M172.64 169.67c-36 1.17-65.89 32.22-69.93 67.57a87.111 87.111 0 0 0 14.93 3.7c.99-32.21 22.9-63.49 55-71.27z" fill="#a984ef" data-name="Path 117"/>
    <rect id="prefix__Rectangle_11" width="33.44" height="51.19" fill="#9258ed" data-name="Rectangle 11" rx="12.52" transform="translate(171.73 135.52)"/>
    <path id="prefix__Path_118" d="M186.68 186.43h-2.27a12.84 12.84 0 0 1-12.84-12.84v-13.34a45.839 45.839 0 0 1-8.75.84h-.67a46.54 46.54 0 0 1-46.4-46.4V82.32c4.81 0 8.7 7.9 8.7 12.71v13.41c.3 33.63 20.88 46.4 46.4 46.4h.67a45.838 45.838 0 0 0 8.75-.84v13.35c0 7.09.65 19.08 7.74 19.08" fill="#fff" data-name="Path 118"/>
    <path id="prefix__Path_119" d="M220.37 66.9a20.08 20.08 0 0 0-18.07 11.48h3v68.32a20 20 0 0 0 35.11-13.06V86.9a20.06 20.06 0 0 0-20.04-20z" fill="#6138a0" data-name="Path 119"/>
    <path id="prefix__Path_120" d="M219.29 104c0 7.89-7.2 14.29-16.08 14.29V89.67c8.88 0 16.08 6.4 16.08 14.33z" fill="#9258ed" data-name="Path 120"/>
    <path id="prefix__Path_121" d="M212.14 104a7.15 7.15 0 0 1-7.14 7.15V96.81a7.15 7.15 0 0 1 7.14 7.19z" fill="#fff" data-name="Path 121"/>
    <path id="prefix__Path_122" d="M132.54 106.64a4.82 4.82 0 0 0-.29-1.6 4.11 4.11 0 0 0-.8-1.37 3.69 3.69 0 0 0-1.23-.91 3.51 3.51 0 0 0-1.56-.34 3.47 3.47 0 0 0-1.55.34 3.9 3.9 0 0 0-1.22.91 4.29 4.29 0 0 0-.8 1.37 4.81 4.81 0 0 0-.28 1.6h-3.9a8.45 8.45 0 0 1 .59-3.1 8.06 8.06 0 0 1 1.64-2.57 7.63 7.63 0 0 1 8.57-1.72 7.44 7.44 0 0 1 2.46 1.72 7.73 7.73 0 0 1 1.64 2.57 8.25 8.25 0 0 1 .59 3.1z" fill="#6138a0" data-name="Path 122"/>
    <path id="prefix__Path_123" d="M171.26 106.77a4.9 4.9 0 0 0-.28-1.6 4.24 4.24 0 0 0-.8-1.36 3.86 3.86 0 0 0-1.24-.92 3.65 3.65 0 0 0-1.56-.34 3.57 3.57 0 0 0-1.54.34 3.72 3.72 0 0 0-1.23.92 4.24 4.24 0 0 0-.8 1.36 4.9 4.9 0 0 0-.28 1.6h-3.89a8.36 8.36 0 0 1 .59-3.09 7.73 7.73 0 0 1 1.64-2.57 7.39 7.39 0 0 1 2.46-1.72 7.63 7.63 0 0 1 8.57 1.72 8.06 8.06 0 0 1 1.64 2.57 8.36 8.36 0 0 1 .59 3.09z" fill="#6138a0" data-name="Path 123"/>
    <circle id="prefix__Ellipse_13" cx="29.47" cy="29.47" r="29.47" fill="#6138a0" data-name="Ellipse 13" transform="translate(128.54 15.43)"/>
    <circle id="prefix__Ellipse_14" cx="21.81" cy="21.81" r="21.81" fill="#6138a0" data-name="Ellipse 14" transform="translate(99.84 34.91)"/>
    <circle id="prefix__Ellipse_15" cx="28.4" cy="28.4" r="28.4" fill="#6138a0" data-name="Ellipse 15" transform="translate(171.15 33.81)"/>
    <path id="prefix__Path_124" d="M135.24 126.84c0 8.32 8 15.07 17.95 15.07s18-6.75 18-15.07z" fill="#6138a0" data-name="Path 124"/>
    <path id="prefix__Path_125" d="M52.74 138.61l-.14-.25-11.19-17.24A11.17 11.17 0 0 0 26 117.83a11.18 11.18 0 0 0-3.28 15.41l6.06 9.35a30.49 30.49 0 0 0-11.92 24.49c0 16.45 12.4 29.79 27.69 29.79s27.7-13.34 27.7-29.79c0-13.39-8.25-24.72-19.51-28.47z" fill="#9258ed" data-name="Path 125"/>
    <circle id="prefix__Ellipse_16" cx="48.05" cy="48.05" r="48.05" fill="#9258ed" data-name="Ellipse 16" transform="translate(0 22.58)"/>
    <circle id="prefix__Ellipse_17" cx="35.86" cy="35.86" r="35.86" fill="#a984ef" data-name="Ellipse 17" transform="translate(11.79 36)"/>
    <circle id="prefix__Ellipse_18" cx="23.7" cy="23.7" r="23.7" fill="#fff" data-name="Ellipse 18" transform="translate(23.95 48.16)"/>
    <path class="heart" fill="#e9444b" d="M35.1 64.12a5.52 5.52 0 0 0 0 7.78l5.18 5.18L46.15 83A2.7 2.7 0 0 0 50 83l5.87-5.87L61 71.9a5.52 5.52 0 0 0 0-7.78 5.5 5.5 0 0 0-7.77 0l-5.19 5.19-5.18-5.19a5.5 5.5 0 0 0-7.76 0z"/>
    <path id="prefix__Path_127" d="M52.7 138.1l-.14-.24-11.19-17.25A11.17 11.17 0 0 0 26 117.33a11 11 0 0 0-4.28 5.25 11.18 11.18 0 0 1 15.41 3.28l11.18 17.25c.06.08.1.17.15.25 11.3 3.75 19.5 15.08 19.5 28.47a31.12 31.12 0 0 1-4.87 16.87 30.75 30.75 0 0 0 9.16-22.13c-.04-13.39-8.25-24.71-19.55-28.47z" fill="#a984ef" data-name="Path 127"/>
    <path id="prefix__Path_128" d="M86.86 24.72a2.25 2.25 0 0 0 3.17 0l2.11-2.11 2.39-2.4a1.09 1.09 0 0 0 0-1.55l-2.39-2.39L90 14.16a2.25 2.25 0 0 0-3.17 0 2.25 2.25 0 0 0 0 3.17L89 19.44l-2.11 2.11a2.25 2.25 0 0 0-.03 3.17z" fill="#e9444b" data-name="Path 128"/>
    <path id="prefix__Path_129" d="M104.8 164.39a6.6 6.6 0 0 1-1.33 2.08 6.18 6.18 0 0 1-2 1.4 6.26 6.26 0 0 1-5 0 6.18 6.18 0 0 1-2-1.4 6.6 6.6 0 0 1-1.33-2.08 7.2 7.2 0 0 1 0-5.17 6.6 6.6 0 0 1 1.33-2.08 6.37 6.37 0 0 1 2-1.4 6.26 6.26 0 0 1 5 0 6.14 6.14 0 0 1 2 1.4 6.73 6.73 0 0 1 1.84 4.66 7 7 0 0 1-.51 2.59zm-2.91-3.95a3.53 3.53 0 0 0-.65-1.11 3.17 3.17 0 0 0-1-.75 3.061 3.061 0 0 0-3.52.73 3.35 3.35 0 0 0-.65 1.11 4.12 4.12 0 0 0 0 2.73 3.35 3.35 0 0 0 .65 1.11 3.061 3.061 0 0 0 3.52.73 3.17 3.17 0 0 0 1-.75 3.53 3.53 0 0 0 .65-1.11 4.12 4.12 0 0 0 0-2.69z" fill="#fff" data-name="Path 129"/>
    <path id="prefix__Path_130" d="M71.87 7.26a5 5 0 0 1-1.06 1.66A5.14 5.14 0 0 1 69.23 10a5.08 5.08 0 0 1-3.94 0 5.14 5.14 0 0 1-1.58-1.11 5.35 5.35 0 0 1-1.06-1.66 5.68 5.68 0 0 1 0-4.1 5.42 5.42 0 0 1 1.06-1.65A4.93 4.93 0 0 1 65.28.4a4.889 4.889 0 0 1 5.51 1.11 5.27 5.27 0 0 1 1.07 1.65 5.53 5.53 0 0 1 .39 2.05 5.73 5.73 0 0 1-.38 2.05zm-2.31-3.13a2.6 2.6 0 0 0-.56-.88 2.48 2.48 0 0 0-.78-.59 2.21 2.21 0 0 0-1-.22 2.31 2.31 0 0 0-1 .22 2.45 2.45 0 0 0-.8.59 2.77 2.77 0 0 0-.52.88 3.36 3.36 0 0 0 0 2.17 2.8 2.8 0 0 0 .52.88 2.43 2.43 0 0 0 1.8.81 2.35 2.35 0 0 0 1-.22 2.48 2.48 0 0 0 .78-.59 2.8 2.8 0 0 0 .52-.88 3.23 3.23 0 0 0 .04-2.17z" fill="#9258ed" data-name="Path 130"/>
    <path id="prefix__Path_131" d="M80.08 132.71a3.88 3.88 0 0 0 1.31-.23 3.5 3.5 0 0 0 1.12-.65 3.11 3.11 0 0 0 .74-1 2.94 2.94 0 0 0 .28-1.27 2.73 2.73 0 0 0-.28-1.26 3 3 0 0 0-.74-1 3.52 3.52 0 0 0-1.12-.66 3.879 3.879 0 0 0-1.31-.23v-3.18a6.81 6.81 0 0 1 2.53.48 6.54 6.54 0 0 1 2.1 1.34 6.15 6.15 0 0 1 1.41 2 6.36 6.36 0 0 1 0 5 6.15 6.15 0 0 1-1.41 2 6.38 6.38 0 0 1-2.1 1.34 6.82 6.82 0 0 1-2.53.49z" fill="#6138a0" data-name="Path 131"/>
    <path id="prefix__Path_132" d="M139.21 116.49a4.87 4.87 0 0 0 4.87 4.86v-9.73a4.87 4.87 0 0 0-4.87 4.86z" fill="#fff" data-name="Path 132"/>
  </g>
  <style>
  .heart {
    animation: pulse 1s ease-in-out infinite alternate-reverse;
  }
  @keyframes pulse {
    0% {
      transform: scale(1) translate(0, 0);
    }
    100% {
      transform: scale(.8) translate(11px, 17px);
    }
  }
  </style>
</svg>