<svg xmlns="http://www.w3.org/2000/svg" width="303.12" height="292.813" viewBox="0 0 303.12 292.813">
  <defs>
    <style>
      .prefix__cls-1{fill:#2f185b}.prefix__cls-2{fill:#6138a0}.prefix__cls-3{fill:#e9444b}.prefix__cls-4{fill:#a984ef}.prefix__cls-5{fill:#fff}
    </style>
  </defs>
  <g id="prefix__wiz3" transform="translate(-2234.942 -2691.565)">
    <rect id="prefix__Rectangle_8" width="16.257" height="47.819" class="prefix__cls-1" data-name="Rectangle 8" rx="6.745" transform="translate(2394.304 2929.644)"/>
    <path id="prefix__Path_50" d="M2472.957 2805.5a44.066 44.066 0 0 1-44.068-44.067v-26.566a117.006 117.006 0 1 0 53.125 69.7 44.268 44.268 0 0 1-9.057.933z" class="prefix__cls-2" data-name="Path 50" transform="translate(5.976 5.718)"/>
    <path id="prefix__Path_51" d="M2297.417 2838.939h-20.171a16.3 16.3 0 0 0-15.534 11.533 117.138 117.138 0 0 0 95.511 59.507v-11.234a59.981 59.981 0 0 0-59.806-59.806z" class="prefix__cls-1" data-name="Path 51" transform="translate(9.458 48.295)"/>
    <path id="prefix__Rectangle_9" d="M0 0h31.527v36.368a9.615 9.615 0 0 1-9.615 9.615H6.978A6.978 6.978 0 0 1 0 39V0z" class="prefix__cls-2" data-name="Rectangle 9" transform="rotate(4.997 -31558.059 27555.698)"/>
    <path id="prefix__Path_52" d="M2373.688 2833.183l-1.824-1.825 1.824-1.826a1.939 1.939 0 0 0 0-2.737 1.939 1.939 0 0 0-2.737 0l-1.826 1.826-2.065 2.065a.952.952 0 0 0 0 1.345l2.065 2.065 1.826 1.826a1.942 1.942 0 0 0 2.737 0 1.94 1.94 0 0 0 0-2.739z" class="prefix__cls-3" data-name="Path 52" transform="translate(57.93 43.805)"/>
    <g id="prefix__Group_28" data-name="Group 28" transform="translate(2439.965 2691.565)">
      <path id="prefix__Path_53" d="M2391.753 2717.625a2.217 2.217 0 0 1-1.572-.651l-4.764-4.763a3.429 3.429 0 0 1 4.851-4.848l1.487 1.485 1.486-1.485a3.429 3.429 0 0 1 4.85 4.848l-4.765 4.763a2.212 2.212 0 0 1-1.573.651zm-3.909-9.146a1.311 1.311 0 0 0-.928 2.235l4.763 4.765a.109.109 0 0 0 .15 0l4.764-4.763a1.315 1.315 0 0 0 0-1.855 1.351 1.351 0 0 0-1.854 0l-2.982 2.984-2.984-2.984a1.306 1.306 0 0 0-.93-.382z" class="prefix__cls-3" data-name="Path 53" transform="translate(-2384.416 -2706.361)"/>
    </g>
    <path id="prefix__Path_54" d="M2352.727 2742.558a8.539 8.539 0 0 1 2.335-5.931 7.927 7.927 0 0 1 2.535-1.773 7.684 7.684 0 0 1 3.147-.646 7.571 7.571 0 0 1 3.132.646 7.985 7.985 0 0 1 2.518 1.773 8.278 8.278 0 0 1 1.69 2.651 9.086 9.086 0 0 1 0 6.561 8.277 8.277 0 0 1-1.69 2.651 7.918 7.918 0 0 1-2.535 1.773 7.995 7.995 0 0 1-6.3 0 7.886 7.886 0 0 1-2.535-1.773 8.227 8.227 0 0 1-1.69-2.651 8.71 8.71 0 0 1-.607-3.281zm4.01 0a5 5 0 0 0 .3 1.739 4.362 4.362 0 0 0 .829 1.409 3.937 3.937 0 0 0 1.26.945 3.645 3.645 0 0 0 1.59.347 3.759 3.759 0 0 0 1.606-.347 3.879 3.879 0 0 0 1.276-.945 4.362 4.362 0 0 0 .829-1.409 5.209 5.209 0 0 0 0-3.478 4.373 4.373 0 0 0-.829-1.409 3.871 3.871 0 0 0-1.276-.945 3.756 3.756 0 0 0-1.606-.348 3.642 3.642 0 0 0-1.59.348 3.929 3.929 0 0 0-1.26.945 4.373 4.373 0 0 0-.829 1.409 5 5 0 0 0-.3 1.739z" class="prefix__cls-4" data-name="Path 54" transform="translate(41.613 11.293)"/>
    <path id="prefix__Path_55" d="M2352.169 2845.406a5.817 5.817 0 0 1 1.59-4.037 5.359 5.359 0 0 1 1.726-1.206 5.209 5.209 0 0 1 2.14-.44 5.14 5.14 0 0 1 2.132.44 5.4 5.4 0 0 1 1.713 1.206 5.626 5.626 0 0 1 1.151 1.8 6.194 6.194 0 0 1 0 4.465 5.611 5.611 0 0 1-1.151 1.8 5.36 5.36 0 0 1-1.724 1.206 5.436 5.436 0 0 1-4.285 0 5.356 5.356 0 0 1-1.726-1.206 5.6 5.6 0 0 1-1.149-1.8 5.909 5.909 0 0 1-.417-2.228zm2.728 0a3.415 3.415 0 0 0 .2 1.183 2.939 2.939 0 0 0 .565.958 2.659 2.659 0 0 0 .856.643 2.472 2.472 0 0 0 1.083.237 2.542 2.542 0 0 0 1.093-.237 2.611 2.611 0 0 0 .867-.643 2.939 2.939 0 0 0 .565-.958 3.553 3.553 0 0 0 0-2.367 2.967 2.967 0 0 0-.565-.958 2.628 2.628 0 0 0-.867-.643 2.546 2.546 0 0 0-1.093-.237 2.475 2.475 0 0 0-1.083.237 2.677 2.677 0 0 0-.856.643 2.967 2.967 0 0 0-.565.958 3.418 3.418 0 0 0-.197 1.184z" class="prefix__cls-5" data-name="Path 55" transform="translate(41.416 48.572)"/>
    <path id="prefix__Path_56" d="M2369.81 2758a2.857 2.857 0 0 0 .17.993 2.469 2.469 0 0 0 .474.8 2.25 2.25 0 0 0 .719.541 2.094 2.094 0 0 0 .91.2 2.149 2.149 0 0 0 .919-.2 2.227 2.227 0 0 0 .73-.541 2.5 2.5 0 0 0 .473-.8 2.98 2.98 0 0 0 0-1.988 2.494 2.494 0 0 0-.473-.805 2.218 2.218 0 0 0-.73-.54 2.142 2.142 0 0 0-.919-.2 2.088 2.088 0 0 0-.91.2 2.24 2.24 0 0 0-.719.54 2.469 2.469 0 0 0-.474.805 2.863 2.863 0 0 0-.17.995z" class="prefix__cls-5" data-name="Path 56" transform="translate(47.649 18.804)"/>
    <path id="prefix__Path_57" d="M2378.112 2723.683a4.673 4.673 0 0 1 1.273-3.236 4.328 4.328 0 0 1 1.382-.968 4.24 4.24 0 0 1 1.717-.349 4.161 4.161 0 0 1 1.707.349 4.354 4.354 0 0 1 1.373.968 4.552 4.552 0 0 1 .923 1.446 4.936 4.936 0 0 1 0 3.577 4.475 4.475 0 0 1-.923 1.446 4.322 4.322 0 0 1-1.381.967 4.346 4.346 0 0 1-3.433 0 4.316 4.316 0 0 1-1.381-.967 4.425 4.425 0 0 1-.92-1.446 4.718 4.718 0 0 1-.337-1.787zm2.187 0a2.7 2.7 0 0 0 .163.947 2.3 2.3 0 0 0 .452.767 2.134 2.134 0 0 0 .685.518 2 2 0 0 0 .867.188 2.052 2.052 0 0 0 .876-.187 2.139 2.139 0 0 0 .7-.518 2.341 2.341 0 0 0 .454-.767 2.864 2.864 0 0 0 0-1.9 2.341 2.341 0 0 0-.454-.767 2.134 2.134 0 0 0-.7-.517 2.046 2.046 0 0 0-.876-.188 1.993 1.993 0 0 0-.867.188 2.129 2.129 0 0 0-.685.517 2.3 2.3 0 0 0-.452.767 2.7 2.7 0 0 0-.162.952z" class="prefix__cls-4" data-name="Path 57" transform="translate(51.752 -6.441)"/>
    <path id="prefix__Path_58" d="M2356.72 2757.012a2.133 2.133 0 0 1 .157-.823 2.162 2.162 0 0 1 .429-.666 1.984 1.984 0 0 1 .636-.445 1.925 1.925 0 0 1 .79-.162 1.9 1.9 0 0 1 .786.162 2 2 0 0 1 .632.445 2.1 2.1 0 0 1 .426.666 2.3 2.3 0 0 1 0 1.647 2.088 2.088 0 0 1-.426.666 1.97 1.97 0 0 1-.636.445 2.015 2.015 0 0 1-1.58 0 1.978 1.978 0 0 1-.636-.445 2.087 2.087 0 0 1-.425-.666 2.179 2.179 0 0 1-.153-.824zm1.005 0a1.254 1.254 0 0 0 .076.437 1.058 1.058 0 0 0 .207.353 1 1 0 0 0 .317.239.914.914 0 0 0 .4.086.945.945 0 0 0 .4-.086.994.994 0 0 0 .321-.239 1.082 1.082 0 0 0 .207-.353 1.289 1.289 0 0 0 0-.873 1.08 1.08 0 0 0-.207-.353.986.986 0 0 0-.321-.238.945.945 0 0 0-.4-.086.914.914 0 0 0-.4.086 1 1 0 0 0-.317.238 1.055 1.055 0 0 0-.207.353 1.251 1.251 0 0 0-.076.436z" class="prefix__cls-4" data-name="Path 58" transform="translate(43.024 18.61)"/>
    <path id="prefix__Path_59" d="M2341.2 2815.564a2.13 2.13 0 0 1 .158-.823 2.087 2.087 0 0 1 .429-.666 1.98 1.98 0 0 1 .636-.446 1.932 1.932 0 0 1 .79-.162 1.908 1.908 0 0 1 .787.162 2 2 0 0 1 .632.446 2.057 2.057 0 0 1 .424.666 2.274 2.274 0 0 1 0 1.647 2.071 2.071 0 0 1-.424.665 1.968 1.968 0 0 1-.636.446 1.97 1.97 0 0 1-2.217-.446 2.041 2.041 0 0 1-.425-.665 2.182 2.182 0 0 1-.154-.824zm1.007 0a1.286 1.286 0 0 0 .074.437 1.119 1.119 0 0 0 .208.353 1 1 0 0 0 .316.237.9.9 0 0 0 .4.088.935.935 0 0 0 .4-.088.976.976 0 0 0 .321-.237 1.125 1.125 0 0 0 .207-.353 1.324 1.324 0 0 0 0-.874 1.12 1.12 0 0 0-.207-.354.98.98 0 0 0-.321-.237.946.946 0 0 0-.4-.088.915.915 0 0 0-.4.088 1 1 0 0 0-.316.237 1.115 1.115 0 0 0-.208.354 1.284 1.284 0 0 0-.074.437z" class="prefix__cls-4" data-name="Path 59" transform="translate(37.541 39.296)"/>
    <path id="prefix__Rectangle_10" d="M12.087 0h82.644v58.629a34.749 34.749 0 0 1-34.749 34.749H34.749A34.749 34.749 0 0 1 0 58.629V12.087A12.087 12.087 0 0 1 12.087 0z" class="prefix__cls-2" data-name="Rectangle 10" transform="translate(2271.56 2781.759)"/>
    <path id="prefix__Path_60" d="M2279.089 2876.537h2.3a13.013 13.013 0 0 0 13.012-13.012V2850a46.811 46.811 0 0 0 8.866.855h.679a47.165 47.165 0 0 0 47.026-47.026v-32.81c-4.871 0-8.818 8.01-8.818 12.88v13.6c-.3 34.077-21.162 47.027-47.026 47.027h-.679a46.815 46.815 0 0 1-8.866-.855v13.526c0 7.186-.662 19.343-7.849 19.343" class="prefix__cls-5" data-name="Path 60" transform="translate(17.118 25.298)"/>
    <g id="prefix__Group_29" data-name="Group 29" transform="translate(2312.835 2844.688)">
      <path id="prefix__Path_62" d="M2309.416 2817.65h-6.766a10.16 10.16 0 0 1-10.15-10.15h4.06a6.1 6.1 0 0 0 6.09 6.09h6.766z" class="prefix__cls-1" data-name="Path 62" transform="translate(-2292.5 -2807.5)"/>
    </g>
    <path id="prefix__Path_63" d="M2360.889 2751.18a5.582 5.582 0 0 0-1.428-.18h-78.533a28.239 28.239 0 0 0-28.427 27.329c0 9.531-.677 17.33 17.593 17.33h7.443a17.515 17.515 0 0 0 17.593-17.33 11.419 11.419 0 0 1 11.5-11.331h52.829a5.53 5.53 0 0 0 1.428-.181c2.049-.538 7.319-2.448 7.319-7.818s-5.268-7.279-7.317-7.819z" class="prefix__cls-4" data-name="Path 63" transform="translate(6.202 17.226)"/>
    <path id="prefix__Path_64" d="M2252 2815.733l.715-41.113 14.171 8.634v32.479z" class="prefix__cls-4" data-name="Path 64" transform="translate(6.026 25.571)"/>
    <circle id="prefix__Ellipse_4" cx="29.483" cy="29.483" r="29.483" class="prefix__cls-4" data-name="Ellipse 4" transform="translate(2234.942 2832.743)"/>
    <path id="prefix__Path_65" d="M2255 2794.826c0 5.979 5.452 10.826 12.18 10.826V2784c-6.728 0-12.18 4.847-12.18 10.826z" class="prefix__cls-2" data-name="Path 65" transform="translate(7.086 28.885)"/>
    <path id="prefix__Path_66" d="M2259 2793.413a5.413 5.413 0 0 0 5.413 5.413V2788a5.413 5.413 0 0 0-5.413 5.413z" class="prefix__cls-5" data-name="Path 66" transform="translate(8.5 30.298)"/>
    <path id="prefix__Path_94" d="M16.7 0h33.811a16.7 16.7 0 0 1 0 33.4l-38.725-.14C2.561 33.264 0 25.927 0 16.7A16.7 16.7 0 0 1 16.7 0z" class="prefix__cls-2" data-name="Path 94" transform="rotate(-32.86 6027.245 -2760.814)"/>
    <path id="prefix__Path_93" d="M9.529 0h19.813a9.529 9.529 0 0 1 9.529 9.529v3.663a9.529 9.529 0 0 1-9.529 9.529H9.529A9.529 9.529 0 0 1 0 13.192V9.529A9.529 9.529 0 0 1 9.529 0z" class="prefix__cls-2" data-name="Path 93" transform="rotate(-98.8 2452.677 365.49)"/>
    <g id="prefix__Group_30" data-name="Group 30" transform="translate(2350.578 2820.328)">
      <path id="prefix__Path_67" d="M2334.6 2944.736c-7.848 0-14.21-18.355-14.21-26.2a14.21 14.21 0 0 1 14.21-14.21 100.729 100.729 0 0 0 100.614-100.615 14.21 14.21 0 0 1 28.419 0c0 6.048.845 20.466 0 26.721-8.673 64.181-63.933 114.304-129.033 114.304z" class="prefix__cls-2" data-name="Path 67" transform="translate(-2320.39 -2789.5)"/>
    </g>
    <path id="prefix__Path_68" d="M2340.061 2917.566c55.055-.123 99.837-45.123 100.218-100.561l-.105-.948c-.067-.29-.134-.58-.18-.88l-2.706-17.676a9.615 9.615 0 0 1 9.726-11.435 11.361 11.361 0 0 1 12.1 6.7l17.824-11.614a16.794 16.794 0 0 1 20.434 1.687 15.83 15.83 0 0 0-7.911-9.107 17.859 17.859 0 0 0-18 1.11l-16.921 11.025a11.36 11.36 0 0 0-12.1-6.7 9.615 9.615 0 0 0-9.727 11.435l2.706 17.674c.046.3.114.591.181.881l.106.947c-.381 55.429-45.15 100.424-100.191 100.563a14.324 14.324 0 0 0-9.261 25.353 14.3 14.3 0 0 1 13.8-18.455z" class="prefix__cls-5" data-name="Path 68" transform="translate(30.431 23.51)"/>
    <path id="prefix__Path_69" d="M2386.451 2920.006v-14.878l-.254-22.645c-.431.126-62.984 20.931-109.344-38.386-3.383-4.329-8.128-6.433-13.337-4.094-9.785 4.4-5.7 11.992-4.336 16.525 16.828 55.975 80.113 96.53 138.223 72.422a9.13 9.13 0 0 1-10.952-8.944z" class="prefix__cls-1" data-name="Path 69" transform="translate(7.852 48.328)"/>
    <path id="prefix__Path_70" d="M2258.215 2847c5.247-2.34 10.026-.236 13.433 4.094 46.7 59.318 109.7 38.512 110.135 38.386l.256 22.645V2927a9.058 9.058 0 0 0 2.6 6.336 95 95 0 0 0 13.761-4.483 9.194 9.194 0 0 1-11.031-8.944v-14.878l-.256-24c-.435.126-63.439 22.286-110.134-37.032-3.41-4.33-8.187-6.435-13.435-4.094-4.592 2.049-6.15 4.792-6.367 7.6.33-.172.672-.342 1.038-.505z" class="prefix__cls-2" data-name="Path 70" transform="translate(7.842 48.295)"/>
    <g id="prefix__Group_31" data-name="Group 31" transform="translate(2455.778 2708.644)">
      <path id="prefix__Path_71" d="M2405.169 2709.77l-.448-.281s-6.969 4.427-6.508 14.423 7.383 25.167 24.367 27.724c7.844.64 11.482-2.758 11.482-2.758l4.161.628a.885.885 0 0 0 .582-.794c.083-.666-.125-.97-4.79-1-4.183-.8-12.271-1.709-21.878-13.235-8.894-12.763-7.23-21.592-6.968-24.707z" class="prefix__cls-4" data-name="Path 71" transform="translate(-2389.943 -2709.489)"/>
      <path id="prefix__Path_72" d="M2393.482 2722.1l-.519-.1s-4.844 6.685-.731 15.806 16.144 20.672 32.874 16.785c7.527-2.3 9.656-6.8 9.656-6.8l4.1-.95a.887.887 0 0 0 .248-.954c-.168-.647-.473-.854-4.821.841-4.184.8-12.038 2.937-25.216-4.235-12.973-8.58-14.686-17.402-15.591-20.393z" class="prefix__cls-2" data-name="Path 72" transform="translate(-2390.576 -2707.447)"/>
    </g>
    <g id="prefix__Group_32" data-name="Group 32" transform="translate(2488.76 2715.66)">
      <path id="prefix__Path_73" d="M2424.091 2719.962a5.445 5.445 0 0 1 2.532 1.884 5.135 5.135 0 0 1 3.39-2.14 4.448 4.448 0 0 1-1.191 3.849 5.434 5.434 0 0 1 2.489 1.984 4.47 4.47 0 0 1-4.638.076 7.1 7.1 0 0 1-.769-.523 6.824 6.824 0 0 1-.688-.6 4.46 4.46 0 0 1-1.125-4.53z" class="prefix__cls-2" data-name="Path 73" transform="translate(-2414.059 -2719.706)"/>
      <path id="prefix__Path_74" d="M2427.379 2725.151c-1.555-1.2-3.769-3.966-7.347-2.221-3.466 1.689-4.648 10.949-1.842 13.775.05.05.1.1.154.146s.118.076.178.112c3.444 2 12.105-1.484 12.864-5.266.783-3.902-2.449-5.346-4.007-6.546zm-7.714 9.827s.113-1.989 1-1.325-.999 1.325-.999 1.325zm.716-4.893s.113-1.989 1-1.326-1 1.326-1 1.326zm.387-4.469s.111-1.988.995-1.324-.994 1.324-.994 1.324zm3.665 7.6s.112-1.989 1-1.326-1 1.324-1 1.324zm.28-4.55s.111-1.989 1-1.326-1 1.324-1 1.324zm4.266 3.292s.111-1.989.995-1.324-.995 1.322-.995 1.322z" class="prefix__cls-3" data-name="Path 74" transform="translate(-2416.625 -2718.766)"/>
    </g>
    <path id="prefix__Path_76" d="M2390.634 2746.986a36.374 36.374 0 1 0 72.748 0z" class="prefix__cls-4" data-name="Path 76" transform="translate(55.006 15.808)"/>
    <path id="prefix__Path_77" d="M2395.444 2746.986a29.865 29.865 0 0 0 59.729 0z" class="prefix__cls-2" data-name="Path 77" transform="translate(56.705 15.808)"/>
    <path id="prefix__Path_78" d="M2321.315 2797.124a4.884 4.884 0 0 1 .286-1.621 4.266 4.266 0 0 1 .815-1.386 3.814 3.814 0 0 1 1.255-.928 3.685 3.685 0 0 1 1.58-.342 3.577 3.577 0 0 1 1.564.342 3.829 3.829 0 0 1 1.239.928 4.266 4.266 0 0 1 .815 1.386 4.872 4.872 0 0 1 .287 1.621h3.948a8.548 8.548 0 0 0-.6-3.136 8.1 8.1 0 0 0-1.662-2.608 7.749 7.749 0 0 0-2.494-1.743 7.855 7.855 0 0 0-6.192 0 7.763 7.763 0 0 0-2.493 1.743 8.094 8.094 0 0 0-1.662 2.608 8.534 8.534 0 0 0-.6 3.136z" class="prefix__cls-1" data-name="Path 78" transform="translate(29.132 30.651)"/>
    <path id="prefix__Path_79" d="M2292.315 2797.226a4.89 4.89 0 0 1 .285-1.623 4.274 4.274 0 0 1 .815-1.385 3.837 3.837 0 0 1 1.254-.929 3.7 3.7 0 0 1 1.581-.343 3.591 3.591 0 0 1 1.564.343 3.859 3.859 0 0 1 1.239.929 4.273 4.273 0 0 1 .814 1.385 4.879 4.879 0 0 1 .287 1.623h3.948a8.555 8.555 0 0 0-.6-3.139 8.1 8.1 0 0 0-1.662-2.606 7.749 7.749 0 0 0-2.494-1.745 7.869 7.869 0 0 0-6.193 0 7.756 7.756 0 0 0-2.493 1.745 8.083 8.083 0 0 0-1.662 2.606 8.545 8.545 0 0 0-.6 3.139z" class="prefix__cls-1" data-name="Path 79" transform="translate(18.887 30.687)"/>
    <path id="prefix__Path_80" d="M2358.042 2824.223a3.411 3.411 0 0 1-1.131-.2 2.96 2.96 0 0 1-.965-.567 2.668 2.668 0 0 1-.648-.876 2.562 2.562 0 0 1-.238-1.1 2.493 2.493 0 0 1 .238-1.091 2.708 2.708 0 0 1 .648-.863 2.994 2.994 0 0 1 .965-.569 3.422 3.422 0 0 1 1.131-.2V2816a5.976 5.976 0 0 0-2.188.418 5.654 5.654 0 0 0-1.817 1.158 5.4 5.4 0 0 0-1.215 1.739 5.471 5.471 0 0 0 0 4.317 5.4 5.4 0 0 0 1.215 1.738 5.648 5.648 0 0 0 1.817 1.159 5.97 5.97 0 0 0 2.188.417z" class="prefix__cls-4" data-name="Path 80" transform="translate(52.841 40.192)"/>
    <g id="prefix__Group_39" data-name="Group 39" transform="translate(2462.575 2767.376)">
      <g id="prefix__Group_36" data-name="Group 36">
        <path id="prefix__Path_81" d="M2404.787 2752.224c0 .65-.366 1.176-.819 1.176s-.82-.526-.82-1.176.367-1.852.82-1.852.819 1.204.819 1.852z" class="prefix__cls-5" data-name="Path 81" transform="translate(-2403.148 -2750.372)"/>
        <path id="prefix__Path_82" d="M2412.188 2752.224c0 .65-.367 1.176-.819 1.176s-.82-.526-.82-1.176.367-1.852.82-1.852.819 1.204.819 1.852z" class="prefix__cls-5" data-name="Path 82" transform="translate(-2400.533 -2750.372)"/>
        <path id="prefix__Path_83" d="M2419.589 2752.224c0 .65-.367 1.176-.819 1.176s-.82-.526-.82-1.176.367-1.852.82-1.852.819 1.204.819 1.852z" class="prefix__cls-5" data-name="Path 83" transform="translate(-2397.918 -2750.372)"/>
        <path id="prefix__Path_84" d="M2426.99 2752.224c0 .65-.367 1.176-.819 1.176s-.82-.526-.82-1.176.367-1.852.82-1.852.819 1.204.819 1.852z" class="prefix__cls-5" data-name="Path 84" transform="translate(-2395.303 -2750.372)"/>
        <path id="prefix__Path_85" d="M2434.391 2752.224c0 .65-.367 1.176-.819 1.176s-.82-.526-.82-1.176.367-1.852.82-1.852.819 1.204.819 1.852z" class="prefix__cls-5" data-name="Path 85" transform="translate(-2392.689 -2750.372)"/>
      </g>
      <g id="prefix__Group_37" data-name="Group 37" transform="translate(3.501 6.732)">
        <path id="prefix__Path_86" d="M2407.374 2757.2c0 .648-.367 1.174-.82 1.174s-.819-.526-.819-1.174.367-1.853.819-1.853.82 1.203.82 1.853z" class="prefix__cls-5" data-name="Path 86" transform="translate(-2405.735 -2755.347)"/>
        <path id="prefix__Path_87" d="M2414.775 2757.2c0 .648-.367 1.174-.82 1.174s-.819-.526-.819-1.174.366-1.853.819-1.853.82 1.203.82 1.853z" class="prefix__cls-5" data-name="Path 87" transform="translate(-2403.121 -2755.347)"/>
        <path id="prefix__Path_88" d="M2422.176 2757.2c0 .648-.367 1.174-.82 1.174s-.819-.526-.819-1.174.367-1.853.819-1.853.82 1.203.82 1.853z" class="prefix__cls-5" data-name="Path 88" transform="translate(-2400.505 -2755.347)"/>
        <path id="prefix__Path_89" d="M2429.577 2757.2c0 .648-.366 1.174-.82 1.174s-.819-.526-.819-1.174.367-1.853.819-1.853.82 1.203.82 1.853z" class="prefix__cls-5" data-name="Path 89" transform="translate(-2397.891 -2755.347)"/>
      </g>
      <g id="prefix__Group_38" data-name="Group 38" transform="translate(8.022 13.445)">
        <path id="prefix__Path_90" d="M2410.715 2762.16c0 .648-.367 1.175-.819 1.175s-.82-.526-.82-1.175.367-1.853.82-1.853.819 1.203.819 1.853z" class="prefix__cls-5" data-name="Path 90" transform="translate(-2409.076 -2760.307)"/>
        <path id="prefix__Path_91" d="M2418.116 2762.16c0 .648-.367 1.175-.819 1.175s-.82-.526-.82-1.175.367-1.853.82-1.853.819 1.203.819 1.853z" class="prefix__cls-5" data-name="Path 91" transform="translate(-2406.461 -2760.307)"/>
        <path id="prefix__Path_92" d="M2425.517 2762.16c0 .648-.366 1.175-.819 1.175s-.82-.526-.82-1.175.367-1.853.82-1.853.819 1.203.819 1.853z" class="prefix__cls-5" data-name="Path 92" transform="translate(-2403.846 -2760.307)"/>
      </g>
    </g>
  </g>
</svg>
