<svg xmlns="http://www.w3.org/2000/svg" viewBox="0 0 248.32 230.09">
  <defs>
    <style>.cls-1{fill:#a984ef;}.cls-2{fill:#6138a0;}.cls-3{fill:#c7b1fc;}.cls-4{fill:#fff;}.cls-5{fill:#e9444b;}</style>
  </defs>
  <g id="Layer_2" data-name="Layer 2">
    <g id="Layer_1-2" data-name="Layer 1">
      <g id="wiz2">
        <circle id="Ellipse_19" data-name="Ellipse 19" fill="#a984ef" cx="133.53" cy="114.79" r="114.79"/>
        <path id="Path_133" data-name="Path 133" fill="#6138a0" d="M233.85,171.22a75.81,75.81,0,0,0-49.58-18.49H169.92c-39.24,0-68.52,33.93-72.5,72.16,12.71,4.92,23.25,5.2,37.71,5.2C177.43,230.1,214.31,205.52,233.85,171.22Z"/>
        <path id="Path_134" data-name="Path 134" fill="#c7b1fc" d="M167.55,152.26c-38.31,1.24-77.82,29.58-82.12,67.19,5.25,3.39,16.77,7.63,22.67,8.72C109.15,193.89,133.4,160.53,167.55,152.26Z"/>
        <path id="Rectangle_12" data-name="Rectangle 12" fill="#a984ef" d="M180.78,109.27h8a9.5,9.5,0,0,1,9.5,9.5v41.81a9.49,9.49,0,0,1-9.5,9.49h-8a9.49,9.49,0,0,1-9.49-9.49V118.77A9.49,9.49,0,0,1,180.78,109.27Z"/>
        <path id="Path_135" data-name="Path 135" fill="#fff" d="M182.49,170.09h-2.42a13.67,13.67,0,0,1-13.66-13.66v-14.2a48.48,48.48,0,0,1-9.31.9h-.71A49.52,49.52,0,0,1,107,93.76V59.32c5.11,0,9.26,8.41,9.26,13.52V87.12c.31,35.77,22.22,49.37,49.37,49.37h.71a48.37,48.37,0,0,0,9.3-.9v14.2c0,7.54.7,20.31,8.24,20.31"/>
        <path id="Path_136" data-name="Path 136" fill="#6138a0" d="M134.19,17.38a6.3,6.3,0,0,1,1.56-.2H192A30.85,30.85,0,0,1,223,47h0C223,57.46,223.77,66,203.8,66h-8.13A19.14,19.14,0,0,1,176.44,47h0a12.48,12.48,0,0,0-12.57-12.38H135.74a6.3,6.3,0,0,1-1.56-.2c-2.24-.59-8-2.68-8-8.54S132,18,134.19,17.38Z"/>
        <path id="Path_137" data-name="Path 137" fill="#c7b1fc" d="M127.64,25.92c0-5.87,5.76-8,8-8.54a6.3,6.3,0,0,1,1.56-.2h-7.71a6.3,6.3,0,0,0-1.56.2c-2.24.59-8,2.68-8,8.54s5.76,8,8,8.54a6.3,6.3,0,0,0,1.56.2h7.71a6.3,6.3,0,0,1-1.56-.2C133.4,33.88,127.64,31.79,127.64,25.92Z"/>
        <ellipse id="Ellipse_20" data-name="Ellipse 20" fill="#6138a0" cx="219.56" cy="65.41" rx="16.14" ry="25"/>
        <path id="Path_138" data-name="Path 138" fill="#a984ef" d="M220.69,81.87c0,8.74-8,15.83-17.81,15.83V66C212.71,66,220.69,73.13,220.69,81.87Z"/>
        <path id="Path_139" data-name="Path 139" fill="#fff" d="M212.77,81.87a7.92,7.92,0,0,1-7.91,7.92h0V74a7.9,7.9,0,0,1,7.91,7.91Z"/>
        <path id="Path_140" data-name="Path 140" fill="#fff" d="M152.62,108.55a7.6,7.6,0,0,1,7.6,7.6H145a7.59,7.59,0,0,1,7.59-7.6Z"/>
        <path id="Path_141" class="flooting-down" data-name="Path 141" fill="#e9444b" d="M11.93,38.55h0a2.38,2.38,0,0,0,3.37,0l2.25-2.25,2.54-2.54a1.16,1.16,0,0,0,0-1.65h0l-2.54-2.54L15.3,27.32a2.38,2.38,0,0,0-3.37,0h0a2.38,2.38,0,0,0,0,3.37l2.25,2.25-2.25,2.25A2.37,2.37,0,0,0,11.93,38.55Z"/>
        <path id="Path_142" class="flooting-up"  data-name="Path 142" fill="#fff" d="M74.28,172.91a4.39,4.39,0,0,1-.89,1.4,4.1,4.1,0,0,1-1.33.93,4.14,4.14,0,0,1-3.31,0,4.26,4.26,0,0,1-1.33-.93,4.39,4.39,0,0,1-.89-1.4,4.77,4.77,0,0,1,0-3.45,4.39,4.39,0,0,1,.89-1.4,4.33,4.33,0,0,1,1.32-.93,3.9,3.9,0,0,1,1.65-.34,4.09,4.09,0,0,1,3,1.27,4.47,4.47,0,0,1,1.23,3.12A4.63,4.63,0,0,1,74.28,172.91Zm-1.94-2.64a2.24,2.24,0,0,0-.44-.74,2.14,2.14,0,0,0-.66-.5,1.87,1.87,0,0,0-.84-.18,2,2,0,0,0-.84.18,2,2,0,0,0-.67.5,2.42,2.42,0,0,0-.44.74,2.74,2.74,0,0,0,0,1.83,2.42,2.42,0,0,0,.44.74,2.18,2.18,0,0,0,.67.5,2,2,0,0,0,.84.18,2,2,0,0,0,.84-.18,2,2,0,0,0,.66-.5,2.42,2.42,0,0,0,.44-.74A2.74,2.74,0,0,0,72.34,170.27Z"/>
        <path id="Path_144" class="flooting-left" data-name="Path 144" fill="#6138a0" d="M44,14.68a5.84,5.84,0,0,1-1.19,1.87,5.72,5.72,0,0,1-1.79,1.25,5.55,5.55,0,0,1-6.23-1.25,5.84,5.84,0,0,1-1.19-1.87,6.35,6.35,0,0,1,0-4.62,5.84,5.84,0,0,1,1.19-1.87A5.64,5.64,0,0,1,36.6,6.94a5.44,5.44,0,0,1,2.21-.46A5.32,5.32,0,0,1,41,6.94a5.56,5.56,0,0,1,1.79,1.25A6.22,6.22,0,0,1,44,14.68Zm-2.6-3.54a3.12,3.12,0,0,0-.58-1A2.94,2.94,0,0,0,40,9.47a2.69,2.69,0,0,0-1.12-.25,2.59,2.59,0,0,0-1.13.25,2.83,2.83,0,0,0-.9.67,3.12,3.12,0,0,0-.58,1,3.68,3.68,0,0,0,0,2.45,3.18,3.18,0,0,0,.58,1,2.83,2.83,0,0,0,.9.67,2.58,2.58,0,0,0,1.13.24A2.68,2.68,0,0,0,40,15.25a2.79,2.79,0,0,0,.89-.67,3,3,0,0,0,.58-1A3.68,3.68,0,0,0,41.44,11.14Z"/>
        <path id="Path_145" class="flooting-right" data-name="Path 145" fill="#6138a0" d="M86.51,157.1a4.11,4.11,0,0,0,1.39-.25,3.67,3.67,0,0,0,1.19-.7,3.27,3.27,0,0,0,.8-1.08,3,3,0,0,0,.29-1.35,3.26,3.26,0,0,0-.29-1.34,3.1,3.1,0,0,0-.8-1.06,3.67,3.67,0,0,0-1.19-.7,4.43,4.43,0,0,0-1.39-.25V147a7.51,7.51,0,0,1,2.69.51,7,7,0,0,1,2.24,1.43,6.53,6.53,0,0,1,1.5,2.14,6.71,6.71,0,0,1,0,5.31,6.53,6.53,0,0,1-1.5,2.14,7.13,7.13,0,0,1-2.24,1.43,7.3,7.3,0,0,1-2.69.51Z"/>
        <path id="Path_146" class="flooting-right" data-name="Path 146" fill="#6138a0" d="M75.67,40.71a4.11,4.11,0,0,0-1.39.25,3.67,3.67,0,0,0-1.19.7,3.27,3.27,0,0,0-.8,1.08A3.06,3.06,0,0,0,72,44.1a3.26,3.26,0,0,0,.29,1.34,3.2,3.2,0,0,0,.8,1.06,3.67,3.67,0,0,0,1.19.7,4.43,4.43,0,0,0,1.39.25v3.39A7.51,7.51,0,0,1,73,50.33a7,7,0,0,1-2.24-1.43,6.53,6.53,0,0,1-1.5-2.14,6.71,6.71,0,0,1,0-5.31,6.53,6.53,0,0,1,1.5-2.14A7.13,7.13,0,0,1,73,37.88a7.3,7.3,0,0,1,2.69-.51Z"/>
        <circle id="Ellipse_21" class="eyes-left" data-name="Ellipse 21" fill="#6138a0" cx="127.04" cy="80.97" r="4.25"/>
        <circle id="Ellipse_22" class="eyes-right" data-name="Ellipse 22" fill="#6138a0" cx="167.05" cy="80.97" r="4.25"/>
        <g id="Group_44" data-name="Group 44">
          <path id="Path_147" data-name="Path 147" fill="#6138a0" d="M125.16,92.59a17.4,17.4,0,1,1,17.4-17.41A17.4,17.4,0,0,1,125.16,92.59Zm0-30.55A13.14,13.14,0,1,0,138.3,75.18,13.14,13.14,0,0,0,125.16,62Z"/>
        </g>
        <g id="Group_45" data-name="Group 45">
          <path id="Path_148" data-name="Path 148" fill="#6138a0" d="M164.5,92.59a17.4,17.4,0,1,1,17.41-17.41A17.39,17.39,0,0,1,164.5,92.59Zm0-30.55a13.14,13.14,0,1,0,13.14,13.14A13.14,13.14,0,0,0,164.5,62Z"/>
        </g>
        <g id="Group_46" data-name="Group 46" class="heart">
          <path id="Rectangle_13" data-name="Rectangle 13" fill="#a984ef" d="M41,51h0a41,41,0,0,1,41,41v27.77a41,41,0,0,1-41,41h0a41,41,0,0,1-41-41V91.93A41,41,0,0,1,41,51Z"/>
          <path id="Rectangle_14" data-name="Rectangle 14" fill="#c7b1fc" d="M41,66.15h0A29.62,29.62,0,0,1,70.58,95.77v20.08A29.62,29.62,0,0,1,41,145.47h0a29.62,29.62,0,0,1-29.62-29.62V95.77A29.63,29.63,0,0,1,41,66.15Z"/>
          <path id="Path_149" data-name="Path 149" fill="#e9444b" d="M54.51,95.14a13.85,13.85,0,0,0-27.7,0v9.51h27.7Z"/>
          <path id="Path_150" data-name="Path 150" fill="#fff" d="M40.66,129.1a13.89,13.89,0,0,0,13.85-13.85v-10.6H26.81v10.6A13.89,13.89,0,0,0,40.66,129.1Z"/>
        </g>
      </g>
    </g>
  </g>
  <style>
    .heart {
      transform-origin: center center;
      animation: pulse .8s ease-in-out infinite alternate-reverse;
    }
    .eyes-left {
      transform-origin: center center;
      animation: eyes-left 2.2s ease-in-out infinite alternate-reverse;
    }
    .eyes-right {
      transform-origin: top center;
      animation: eyes-right 2s ease-in-out infinite alternate-reverse;
    }
    .flooting-up {
      transform-origin: center center;
      animation: flooting-up 2s ease-in-out infinite alternate-reverse;
    }
    .flooting-down {
      transform-origin: top center;
      animation: flooting-down 2s ease-in-out infinite alternate-reverse;
    }

    .flooting-left {
      transform-origin: top center;
      animation: flooting-left 2s ease-in-out infinite alternate-reverse;
    }

    .flooting-right {
      transform-origin: top center;
      animation: flooting-right 2s ease-in-out infinite alternate-reverse;
    }

    @keyframes pulse {
      0% {
        transform: rotate(0) ;
      }
      100% {
        transform: rotate(-10deg) ;
      }
    }

    @keyframes eyes-right {
      0% {
        transform: translate(0, 0);
      }
      100% {
        transform: translate(-2.5%, 0%);
      }
    }
    @keyframes eyes-left {
      0% {
        transform: translate(0, 0);
      }
      100% {
        transform: translate(2.5%, 0%);
      }
    }
    @keyframes flooting-up {
      0% {
        transform: translate(0, 0);
      }
      100% {
        transform: translate(-1%, 0%);
      }
    }
    @keyframes flooting-down {
      0% {
        transform: translate(0, 0);
      }
      100% {
        transform: translate(1%, 0%);
      }
    }
    
    @keyframes flooting-left {
      0% {
        transform: translate(0, 0);
      }
      100% {
        transform: translate(0%, -1%);
      }
    }

    
    @keyframes flooting-right {
      0% {
        transform: translate(0, 0);
      }
      100% {
        transform: translate(0%, 1%);
      }
    }
  </style>
</svg>