<svg xmlns="http://www.w3.org/2000/svg" viewBox="0 0 296.74 292.8">
  <defs>
    <style>.cls-1{fill:#2f185b;}.cls-2{fill:#6138a0;}.cls-3{fill:#e9444b;}.cls-4{fill:#a984ef;}.cls-5{fill:#fff;}</style>
  </defs>
  <g id="Layer_2" data-name="Layer 2">
    <g id="Layer_1-2" data-name="Layer 1">
      <g id="wiz3">
        <path id="Rectangle_8" data-name="Rectangle 8" fill="#2f185b" d="M166.1,238.08h2.77a6.75,6.75,0,0,1,6.75,6.74v34.33a6.74,6.74,0,0,1-6.75,6.74H166.1a6.75,6.75,0,0,1-6.75-6.74V244.82A6.76,6.76,0,0,1,166.1,238.08Z" />
        <path id="Path_50" data-name="Path 50" fill="#6138a0" d="M244,119.66A44.07,44.07,0,0,1,199.91,75.6h0V49A117,117,0,1,0,253,118.73,45,45,0,0,1,244,119.66Z" />
        <path id="Path_51" data-name="Path 51" fill="#2f185b" d="M71.93,195.67H51.76A16.29,16.29,0,0,0,36.23,207.2a117.16,117.16,0,0,0,95.51,59.51V255.48A60,60,0,0,0,71.93,195.67Z" />
        <path id="Rectangle_9" data-name="Rectangle 9" fill="#6138a0" d="M45.31,162l31.41,2.75h0L73.55,201a9.62,9.62,0,0,1-10.42,8.74h0l-14.88-1.3a7,7,0,0,1-6.34-7.56h0L45.31,162Z" />
        <path id="Path_52" data-name="Path 52" fill="#e9444b" d="M196.67,185.43l-1.82-1.82,1.82-1.83a2,2,0,0,0,0-2.74h0a2,2,0,0,0-2.74,0l-1.83,1.83L190,182.93a1,1,0,0,0,0,1.34l2.06,2.06,1.83,1.83a2,2,0,0,0,2.74,0h0A1.94,1.94,0,0,0,196.67,185.43Z" />
        <g id="Group_28" data-name="Group 28">
          <path id="Path_53" data-name="Path 53" fill="#e9444b" d="M212.36,11.27a2.19,2.19,0,0,1-1.57-.65L206,5.86A3.43,3.43,0,1,1,210.88,1l1.48,1.48L213.85,1a3.43,3.43,0,0,1,4.85,4.85l-4.76,4.76A2.23,2.23,0,0,1,212.36,11.27Zm-3.91-9.16a1.32,1.32,0,0,0-1.31,1.32,1.3,1.3,0,0,0,.38.92l4.76,4.76a.11.11,0,0,0,.15,0l4.76-4.76a1.32,1.32,0,0,0,0-1.86,1.37,1.37,0,0,0-1.85,0h0l-3,3-3-3a1.41,1.41,0,0,0-.93-.38Z" />
        </g>
        <path id="Path_54" data-name="Path 54" fill="#a984ef" d="M159.39,62.29a8.54,8.54,0,0,1,2.33-5.93,8,8,0,0,1,2.53-1.77,7.9,7.9,0,0,1,3.15-.65,7.48,7.48,0,0,1,3.13.65,7.93,7.93,0,0,1,2.52,1.77A8.32,8.32,0,0,1,174.74,59a9.05,9.05,0,0,1,0,6.56,8.32,8.32,0,0,1-1.69,2.65A7.85,7.85,0,0,1,164.22,70a7.87,7.87,0,0,1-2.53-1.77A8.32,8.32,0,0,1,160,65.57,8.79,8.79,0,0,1,159.39,62.29Zm4,0a5.18,5.18,0,0,0,.3,1.74,4.45,4.45,0,0,0,.83,1.41,3.92,3.92,0,0,0,1.26,1,3.83,3.83,0,0,0,3.2,0,3.86,3.86,0,0,0,1.28-1A4.45,4.45,0,0,0,171.1,64a5.2,5.2,0,0,0,0-3.48,4.45,4.45,0,0,0-.83-1.41,4,4,0,0,0-1.28-1,3.85,3.85,0,0,0-1.61-.35,3.51,3.51,0,0,0-1.59.35,3.92,3.92,0,0,0-1.26,1,4.45,4.45,0,0,0-.83,1.41A5.18,5.18,0,0,0,163.4,62.29Z" />
        <path id="Path_55" data-name="Path 55" fill="#fff" d="M158.64,202.41a5.83,5.83,0,0,1,1.59-4,5.51,5.51,0,0,1,1.73-1.21,5.4,5.4,0,0,1,4.27,0,5.51,5.51,0,0,1,2.86,3,6.16,6.16,0,0,1,0,4.47,5.48,5.48,0,0,1-2.87,3,5.4,5.4,0,0,1-4.28,0,5.21,5.21,0,0,1-1.73-1.21,5.59,5.59,0,0,1-1.15-1.8A5.67,5.67,0,0,1,158.64,202.41Zm2.72,0a3.4,3.4,0,0,0,.2,1.18,3.18,3.18,0,0,0,.56,1,2.58,2.58,0,0,0,.86.64,2.57,2.57,0,0,0,2.17,0,2.62,2.62,0,0,0,.87-.64,2.82,2.82,0,0,0,.56-1,3.57,3.57,0,0,0,0-2.37,3.18,3.18,0,0,0-.56-1,2.62,2.62,0,0,0-.87-.64,2.58,2.58,0,0,0-1.09-.24,2.54,2.54,0,0,0-1.08.24,2.58,2.58,0,0,0-.86.64,2.82,2.82,0,0,0-.56,1,3.76,3.76,0,0,0-.2,1.19Z" />
        <path id="Path_56" data-name="Path 56" fill="#fff" d="M182.51,85.24a2.79,2.79,0,0,0,.17,1,2.68,2.68,0,0,0,.47.8,2.24,2.24,0,0,0,.72.54,2.19,2.19,0,0,0,.91.2,2.24,2.24,0,0,0,.92-.2,2.17,2.17,0,0,0,.73-.54,2.31,2.31,0,0,0,.47-.8,3,3,0,0,0,0-2,2.56,2.56,0,0,0-.47-.8,2.17,2.17,0,0,0-.73-.54,2.24,2.24,0,0,0-.92-.2,2.19,2.19,0,0,0-.91.2,2.24,2.24,0,0,0-.72.54,2.41,2.41,0,0,0-.47.8A3.14,3.14,0,0,0,182.51,85.24Z" />
        <path id="Path_57" data-name="Path 57" fill="#a984ef" d="M194.92,25.68a4.7,4.7,0,0,1,1.27-3.24,4.31,4.31,0,0,1,1.38-1,4.41,4.41,0,0,1,1.72-.35,4,4,0,0,1,1.71.35,4.27,4.27,0,0,1,1.37,1,4.42,4.42,0,0,1,.92,1.45,4.92,4.92,0,0,1,0,3.58,4.42,4.42,0,0,1-.92,1.45,4.27,4.27,0,0,1-6.19,0,4.42,4.42,0,0,1-.92-1.45A4.59,4.59,0,0,1,194.92,25.68Zm2.18,0a2.83,2.83,0,0,0,.16.95,2.4,2.4,0,0,0,.45.77,2.1,2.1,0,0,0,.69.52,2,2,0,0,0,.87.19,2.09,2.09,0,0,0,1.58-.71,2.2,2.2,0,0,0,.45-.77,2.82,2.82,0,0,0,0-1.9,2.4,2.4,0,0,0-.45-.77,2.24,2.24,0,0,0-.7-.52,2.11,2.11,0,0,0-1.75,0,2.17,2.17,0,0,0-.69.52,2.2,2.2,0,0,0-.45.77,2.75,2.75,0,0,0-.16.95Z" />
        <path id="Path_58" data-name="Path 58" fill="#a984ef" d="M164.8,84.06a2.1,2.1,0,0,1,.16-.82,2.26,2.26,0,0,1,.43-.67,2.06,2.06,0,0,1,.64-.45,2,2,0,0,1,1.58,0,2,2,0,0,1,.63.45,2.14,2.14,0,0,1,.43.67,2.34,2.34,0,0,1,0,1.65A2.05,2.05,0,0,1,167.6,86,2,2,0,0,1,166,86a1.91,1.91,0,0,1-.64-.45,2.14,2.14,0,0,1-.43-.67A2,2,0,0,1,164.8,84.06Zm1,0a1.11,1.11,0,0,0,.08.44,1.13,1.13,0,0,0,.21.35,1.08,1.08,0,0,0,.32.24.9.9,0,0,0,.4.09.93.93,0,0,0,.4-.09,1.08,1.08,0,0,0,.32-.24,1.13,1.13,0,0,0,.21-.35,1.3,1.3,0,0,0,0-.87,1.13,1.13,0,0,0-.21-.35,1.08,1.08,0,0,0-.32-.24.93.93,0,0,0-.8,0,1.08,1.08,0,0,0-.32.24,1.13,1.13,0,0,0-.21.35,1.22,1.22,0,0,0-.08.43Z" />
        <path id="Path_59" data-name="Path 59" fill="#a984ef" d="M143.79,163.3a2.1,2.1,0,0,1,.16-.82,2.05,2.05,0,0,1,1.07-1.12,2,2,0,0,1,1.58,0,2,2,0,0,1,.63.45,2,2,0,0,1,.42.67,2.22,2.22,0,0,1-.42,2.32,2.06,2.06,0,0,1-.64.45,2,2,0,0,1-2.22-.45,2.14,2.14,0,0,1-.43-.67A2.39,2.39,0,0,1,143.79,163.3Zm1,0a1.31,1.31,0,0,0,.07.44,1.13,1.13,0,0,0,.21.35,1.08,1.08,0,0,0,.32.24.9.9,0,0,0,.4.09.93.93,0,0,0,.4-.09,1.08,1.08,0,0,0,.32-.24,1.13,1.13,0,0,0,.21-.35,1.3,1.3,0,0,0,0-.87,1.13,1.13,0,0,0-.21-.35,1.08,1.08,0,0,0-.32-.24.93.93,0,0,0-.8,0,1.08,1.08,0,0,0-.32.24,1.13,1.13,0,0,0-.21.35A1.21,1.21,0,0,0,144.8,163.3Z" />
        <path id="Rectangle_10" data-name="Rectangle 10" fill="#6138a0" d="M48.7,90.2h82.64v58.63a34.75,34.75,0,0,1-34.75,34.75H71.36a34.75,34.75,0,0,1-34.75-34.75V102.29A12.09,12.09,0,0,1,48.7,90.2Z" />
        <path id="Path_60" data-name="Path 60" fill="#fff" d="M61.26,210.27h2.3a13,13,0,0,0,13-13V183.73a46.29,46.29,0,0,0,8.87.85h.68a47.18,47.18,0,0,0,47-47V104.74c-4.87,0-8.82,8-8.82,12.88v13.6c-.3,34.08-21.16,47-47,47h-.68a47.18,47.18,0,0,1-8.87-.85v13.53c0,7.19-.66,19.34-7.85,19.34" />
        <g id="Group_29" data-name="Group 29">
          <path id="Path_62" data-name="Path 62" fill="#2f185b" d="M94.8,163.28H88a10.17,10.17,0,0,1-10.15-10.15h4.06A6.11,6.11,0,0,0,88,159.22H94.8Z" />
        </g>
        <path id="Path_63" data-name="Path 63" fill="#a984ef" d="M132.14,76.84a5.78,5.78,0,0,0-1.43-.18H52.18A28.25,28.25,0,0,0,23.75,104h0c0,9.53-.68,17.33,17.59,17.33h7.44A17.52,17.52,0,0,0,66.37,104h0a11.42,11.42,0,0,1,11.5-11.33H130.7a5.78,5.78,0,0,0,1.43-.18c2.05-.54,7.32-2.45,7.32-7.82S134.19,77.38,132.14,76.84Z" />
        <path id="Path_64" data-name="Path 64" fill="#a984ef" d="M23.08,149.74l.72-41.11L38,117.26v32.48Z" />
        <circle id="Ellipse_4" data-name="Ellipse 4" fill="#a984ef" cx="29.48" cy="170.66" r="29.48" />
        <path id="Path_65" data-name="Path 65" fill="#6138a0" d="M27.14,132.15c0,6,5.45,10.83,12.18,10.83V121.33C32.59,121.32,27.14,126.17,27.14,132.15Z" />
        <path id="Path_66" data-name="Path 66" fill="#fff" d="M32.55,132.15A5.41,5.41,0,0,0,38,137.56h0V126.73a5.42,5.42,0,0,0-5.41,5.42Z" />
        <path id="Path_94" data-name="Path 94" fill="#6138a0" d="M242.56,130.43,271,112.07a16.71,16.71,0,0,1,18.14,28.06h0L256.5,161c-7.75,5-13.88.24-18.89-7.51a16.69,16.69,0,0,1,4.95-23.1Z" />
        <path id="Path_93" data-name="Path 93" fill="#6138a0" d="M230.43,143.68l-3-19.58a9.52,9.52,0,0,1,8-10.87l3.62-.56a9.52,9.52,0,0,1,10.87,8l3,19.58a9.52,9.52,0,0,1-8,10.87l-3.62.56A9.53,9.53,0,0,1,230.43,143.68Z" />
        <g id="Group_30" data-name="Group 30">
          <path id="Path_67" data-name="Path 67" fill="#6138a0" d="M129.84,284c-7.85,0-14.21-18.35-14.21-26.2a14.21,14.21,0,0,1,14.21-14.21A100.72,100.72,0,0,0,230.45,143a14.21,14.21,0,0,1,28.42,0c0,6.05.84,20.47,0,26.72C250.2,233.88,194.94,284,129.84,284Z" />
        </g>
        <path id="Path_68" data-name="Path 68" fill="#fff" d="M135.54,249.51c55.05-.12,99.84-45.12,100.22-100.56l-.1-.95c-.07-.29-.13-.58-.18-.88l-2.71-17.68a9.6,9.6,0,0,1,7.62-11.26,10,10,0,0,1,2.11-.17h0a11.37,11.37,0,0,1,12.1,6.7l17.82-11.61a16.79,16.79,0,0,1,20.43,1.69,15.87,15.87,0,0,0-7.91-9.11,17.87,17.87,0,0,0-18,1.11l-16.92,11a11.37,11.37,0,0,0-12.1-6.7h0a9.62,9.62,0,0,0-9.9,9.32,9.91,9.91,0,0,0,.17,2.11l2.71,17.67c0,.3.11.59.18.88l.11.95C230.81,197.47,186,242.46,131,242.6A14.32,14.32,0,0,0,121.73,268a14.3,14.3,0,0,1,9.53-17.84,15.1,15.1,0,0,1,4.28-.6Z" />
        <path id="Path_69" data-name="Path 69" fill="#2f185b" d="M159.35,276.77V261.89l-.25-22.65c-.43.13-63,20.93-109.34-38.39-3.38-4.33-8.13-6.43-13.34-4.09-9.78,4.4-5.7,12-4.34,16.52,16.83,56,80.11,96.53,138.22,72.42a9.13,9.13,0,0,1-10.77-7.12,9.92,9.92,0,0,1-.18-1.81Z" />
        <path id="Path_70" data-name="Path 70" fill="#6138a0" d="M31.11,203.73c5.25-2.34,10-.24,13.43,4.09,46.7,59.32,109.7,38.51,110.14,38.39l.26,22.65v14.88a9.06,9.06,0,0,0,2.6,6.34,95.27,95.27,0,0,0,13.76-4.48,9.21,9.21,0,0,1-10.85-7.17,9.59,9.59,0,0,1-.19-1.77V261.78l-.26-24c-.44.13-63.44,22.29-110.13-37-3.41-4.33-8.19-6.44-13.44-4.09-4.59,2.05-6.15,4.79-6.37,7.6C30.4,204.07,30.74,203.9,31.11,203.73Z" />
        <g class="bananas" id="Group_31" data-name="Group 31">
          <path class="banana1" id="Path_71" data-name="Path 71" fill="#a984ef" d="M236.06,17.36l-.45-.28s-7,4.43-6.51,14.42,7.38,25.17,24.37,27.72c7.84.64,11.48-2.76,11.48-2.76l4.16.63a.87.87,0,0,0,.58-.79c.08-.67-.12-1-4.79-1-4.18-.8-12.27-1.71-21.88-13.24C234.13,29.3,235.8,20.47,236.06,17.36Z" />
          <path class="banana2" id="Path_72" data-name="Path 72" fill="#6138a0" d="M223.74,31.73l-.52-.1s-4.84,6.69-.73,15.81,16.14,20.67,32.87,16.78c7.53-2.3,9.66-6.8,9.66-6.8l4.1-1a.88.88,0,0,0,.25-.95c-.17-.65-.47-.85-4.82.84-4.18.8-12,2.94-25.22-4.24C226.36,43.54,224.64,34.72,223.74,31.73Z" />
        </g>
        <g class="morango" id="Group_32" data-name="Group 32">
          <path id="Path_73" data-name="Path 73" fill="#6138a0" d="M263.84,24.35a5.44,5.44,0,0,1,2.53,1.88,5.13,5.13,0,0,1,3.39-2.14,4.45,4.45,0,0,1-1.19,3.85,5.45,5.45,0,0,1,2.49,2,4.47,4.47,0,0,1-4.64.08,8,8,0,0,1-.77-.52,7.8,7.8,0,0,1-.69-.6A4.49,4.49,0,0,1,263.84,24.35Z" />
          <path id="Path_74" data-name="Path 74" fill="#e9444b" d="M264.57,30.48c-1.55-1.2-3.77-4-7.35-2.22s-4.65,11-1.84,13.77l.15.15a.67.67,0,0,0,.18.11c3.44,2,12.1-1.48,12.86-5.27S266.12,31.68,264.57,30.48Zm-7.72,9.83s.11-2,1-1.32-1,1.32-1,1.32Zm.72-4.89s.11-2,1-1.33-1,1.33-1,1.33ZM258,31s.11-2,1-1.32S258,31,258,31Zm3.67,7.6s.11-2,1-1.33-1,1.33-1,1.33ZM261.9,34s.11-2,1-1.33-1,1.32-1,1.33Zm4.27,3.29s.11-2,1-1.32-1,1.32-1,1.32Z" />
        </g>
        <g class="melancia">
          <path id="Path_76" data-name="Path 76" fill="#a984ef" d="M210.69,71.23a36.37,36.37,0,0,0,72.74,0Z" />
          <path id="Path_77" data-name="Path 77" fill="#6138a0" d="M217.2,71.23a29.87,29.87,0,0,0,59.73,0Z" />
          <g id="Group_39" data-name="Group 39">
            <g id="Group_36" data-name="Group 36">
              <path id="Path_81" data-name="Path 81" fill="#fff" d="M229.26,77.67c0,.65-.37,1.18-.82,1.18s-.82-.53-.82-1.18.37-1.85.82-1.85S229.26,77,229.26,77.67Z" />
              <path id="Path_82" data-name="Path 82" fill="#fff" d="M239.28,77.67c0,.65-.37,1.18-.82,1.18s-.82-.53-.82-1.18.37-1.85.82-1.85S239.28,77,239.28,77.67Z" />
              <path id="Path_83" data-name="Path 83" fill="#fff" d="M249.29,77.67c0,.65-.37,1.18-.82,1.18s-.82-.53-.82-1.18.37-1.85.82-1.85S249.29,77,249.29,77.67Z" />
              <path id="Path_84" data-name="Path 84" fill="#fff" d="M259.31,77.67c0,.65-.37,1.18-.82,1.18s-.82-.53-.82-1.18.37-1.85.82-1.85S259.31,77,259.31,77.67Z" />
              <path id="Path_85" data-name="Path 85" fill="#fff" d="M269.32,77.67c0,.65-.37,1.18-.82,1.18s-.82-.53-.82-1.18.37-1.85.82-1.85S269.32,77,269.32,77.67Z" />
            </g>
            <g id="Group_37" data-name="Group 37">
              <path id="Path_86" data-name="Path 86" fill="#fff" d="M232.77,84.4c0,.65-.37,1.17-.82,1.17s-.82-.53-.82-1.17.37-1.85.82-1.85S232.77,83.75,232.77,84.4Z" />
              <path id="Path_87" data-name="Path 87" fill="#fff" d="M242.79,84.4c0,.65-.37,1.17-.82,1.17s-.82-.53-.82-1.17.37-1.85.82-1.85S242.79,83.75,242.79,84.4Z" />
              <path id="Path_88" data-name="Path 88" fill="#fff" d="M252.8,84.4c0,.65-.37,1.17-.82,1.17s-.82-.53-.82-1.17.37-1.85.82-1.85S252.8,83.75,252.8,84.4Z" />
              <path id="Path_89" data-name="Path 89" fill="#fff" d="M262.82,84.4c0,.65-.37,1.17-.82,1.17s-.82-.53-.82-1.17.37-1.85.82-1.85S262.82,83.75,262.82,84.4Z" />
            </g>
            <g id="Group_38" data-name="Group 38">
              <path id="Path_90" data-name="Path 90" fill="#fff" d="M237.29,91.11c0,.65-.37,1.18-.82,1.18s-.82-.53-.82-1.18.37-1.85.82-1.85S237.29,90.46,237.29,91.11Z" />
              <path id="Path_91" data-name="Path 91" fill="#fff" d="M247.31,91.11c0,.65-.37,1.18-.82,1.18s-.82-.53-.82-1.18.37-1.85.82-1.85S247.31,90.46,247.31,91.11Z" />
              <path id="Path_92" data-name="Path 92" fill="#fff" d="M257.32,91.11c0,.65-.37,1.18-.82,1.18s-.82-.53-.82-1.18.37-1.85.82-1.85S257.32,90.46,257.32,91.11Z" />
            </g>
          </g>
        </g>
        <path id="Path_78" data-name="Path 78" fill="#2f185b" d="M115.5,136.21a4.73,4.73,0,0,1,.29-1.62,4.41,4.41,0,0,1,.81-1.39,3.93,3.93,0,0,1,1.25-.93,3.57,3.57,0,0,1,1.58-.34,3.48,3.48,0,0,1,1.56.34,3.89,3.89,0,0,1,1.24.93,4.23,4.23,0,0,1,.81,1.39,5,5,0,0,1,.29,1.62h4a8.47,8.47,0,0,0-.6-3.14,8.23,8.23,0,0,0-1.66-2.61,7.73,7.73,0,0,0-8.68-1.74,7.72,7.72,0,0,0-2.49,1.74,8,8,0,0,0-1.66,2.61,8.43,8.43,0,0,0-.6,3.14Z" />
        <path id="Path_79" data-name="Path 79" fill="#2f185b" d="M76.25,136.35a5,5,0,0,1,.28-1.62,4.41,4.41,0,0,1,.81-1.39,3.93,3.93,0,0,1,1.25-.93,3.79,3.79,0,0,1,3.14,0,3.89,3.89,0,0,1,1.24.93,4.23,4.23,0,0,1,.81,1.39,5,5,0,0,1,.29,1.62h4a8.47,8.47,0,0,0-.6-3.14,8.23,8.23,0,0,0-1.66-2.61,8,8,0,0,0-2.49-1.75,7.83,7.83,0,0,0-6.19,0,7.5,7.5,0,0,0-2.49,1.75,8,8,0,0,0-1.66,2.61,8.43,8.43,0,0,0-.6,3.14Z" />
        <path id="Path_80" data-name="Path 80" fill="#a984ef" d="M175.93,172.85a3.32,3.32,0,0,1-1.13-.2,3.18,3.18,0,0,1-1-.57,2.73,2.73,0,0,1-.65-.88,2.59,2.59,0,0,1-.24-1.1,2.55,2.55,0,0,1,.24-1.09,2.75,2.75,0,0,1,.65-.86,3,3,0,0,1,1-.57,3.36,3.36,0,0,1,1.13-.2v-2.76a5.88,5.88,0,0,0-2.19.42,5.82,5.82,0,0,0-1.82,1.16,5.32,5.32,0,0,0-1.22,1.74,5.38,5.38,0,0,0,1.22,6.06,5.71,5.71,0,0,0,1.82,1.16,5.88,5.88,0,0,0,2.19.42Z" />
      </g>
    </g>
  </g>
  <style>
    .melancia {
      transform-origin: top center;
      animation: melancia 2s ease-in-out infinite alternate-reverse;
    }
    .bananas {
      transform-origin: top center;
      animation: melancia 2s ease-in-out infinite alternate-reverse;
    }
    .morango {
      transform-origin: top center;
      animation: melancia 2s ease-in-out infinite alternate-reverse;
    }

    .banana1 {
      transform-origin: bottom right;
      animation: banana1 2s ease-in-out infinite alternate-reverse;
    }
    .banana2 {
      transform-origin: bottom right;
      animation: banana2 2s ease-in-out infinite alternate-reverse;
    }
  
    @keyframes melancia {
      0% {
        transform: rotate(0) ;
      }
      100% {
        transform: rotate(-5deg) ;
      }
    }

    @keyframes banana1 {
      0% {
        transform: rotate(0) ;
      }
      100% {
        transform: rotate(1deg) ;
      }
    }
    @keyframes banana2 {
      0% {
        transform: rotate(0) ;
      }
      100% {
        transform: rotate(-1deg) ;
      }
    }
    
  </style>
</svg>