<svg xmlns="http://www.w3.org/2000/svg" viewBox="0 0 248.54 242.85">
  <g id="Layer_2" data-name="Layer 2">
    <g id="Layer_1-2" data-name="Layer 1">
      <circle id="Ellipse_12" data-name="Ellipse 12" fill="#9258ed" cx="140.65" cy="134.47" r="107.89"/>
      <path id="Path_114" data-name="Path 114" fill="#6138a0" d="M115.75,86.33l-6.82,45.06A12.51,12.51,0,0,0,126.28,145a12.73,12.73,0,0,0,5-3.79"/>
      <path id="Path_115" data-name="Path 115" fill="#6138a0" d="M234.94,187.51a71.2,71.2,0,0,0-46.6-17.37H174.85c-36.88,0-67.47,30.87-71.21,66.8,12,4.63,24.93,5.91,38.51,5.91C181.92,242.84,216.57,219.75,234.94,187.51Z"/>
      <g id="Group_43" data-name="Group 43">
        <path id="Path_116" data-name="Path 116" fill="#6138a0" d="M137.7,242.36A124.23,124.23,0,0,1,41.58,197l25.75-21.25A90.92,90.92,0,0,0,137.71,209v33.39Z"/>
      </g>
      <path id="Path_117" data-name="Path 117" fill="#a984ef" d="M172.64,169.68c-36,1.16-65.89,32.22-69.94,67.57a87.22,87.22,0,0,0,14.94,3.7C118.62,208.73,140.54,177.46,172.64,169.68Z"/>
      <path id="Rectangle_11" data-name="Rectangle 11" fill="#9258ed" d="M184.24,135.52h8.4A12.52,12.52,0,0,1,205.16,148v26.15a12.52,12.52,0,0,1-12.52,12.52h-8.4a12.52,12.52,0,0,1-12.52-12.52V148A12.53,12.53,0,0,1,184.24,135.52Z"/>
      <path id="Path_118" data-name="Path 118" fill="#fff" d="M186.67,186.44H184.4a12.84,12.84,0,0,1-12.84-12.84V160.25a45.84,45.84,0,0,1-8.75.84h-.67a46.53,46.53,0,0,1-46.4-46.4V82.32c4.81,0,8.7,7.9,8.7,12.71v13.42c.3,33.62,20.88,46.4,46.4,46.4h.67a45.92,45.92,0,0,0,8.75-.84v13.35c0,7.09.65,19.09,7.74,19.09"/>
      <path id="Path_119" data-name="Path 119" fill="#6138a0" d="M220.36,66.9A20,20,0,0,0,202.3,78.38h3V146.7a20,20,0,0,0,35.11-13.06V86.9A20.07,20.07,0,0,0,220.36,66.9Z"/>
      <path id="Path_120" data-name="Path 120" fill="#9258ed" d="M219.28,104c0,7.89-7.2,14.29-16.08,14.29V89.66C212.08,89.67,219.28,96.07,219.28,104Z"/>
      <path id="Path_121" data-name="Path 121" fill="#fff" d="M212.14,104a7.15,7.15,0,0,1-7.15,7.15V96.82A7.15,7.15,0,0,1,212.14,104Z"/>
      <path id="Path_122" data-name="Path 122" fill="#6138a0" d="M132.53,106.64a4.81,4.81,0,0,0-.28-1.6,4.29,4.29,0,0,0-.8-1.37,3.86,3.86,0,0,0-1.24-.92,3.65,3.65,0,0,0-1.56-.34,3.43,3.43,0,0,0-1.54.34,3.78,3.78,0,0,0-1.22.92,4.19,4.19,0,0,0-.8,1.37,4.81,4.81,0,0,0-.28,1.6h-3.89a8.45,8.45,0,0,1,.59-3.1,7.89,7.89,0,0,1,1.64-2.57,7.54,7.54,0,0,1,2.46-1.72,7.63,7.63,0,0,1,8.57,1.72,8,8,0,0,1,1.64,2.57,8.45,8.45,0,0,1,.59,3.1Z"/>
      <path id="Path_123" data-name="Path 123" fill="#6138a0" d="M171.25,106.78a4.81,4.81,0,0,0-.28-1.6,4.29,4.29,0,0,0-.8-1.37,3.75,3.75,0,0,0-1.24-.92,3.65,3.65,0,0,0-1.56-.34,3.43,3.43,0,0,0-1.54.34,3.68,3.68,0,0,0-1.22.92,4.19,4.19,0,0,0-.8,1.37,4.81,4.81,0,0,0-.28,1.6h-3.89a8.36,8.36,0,0,1,.59-3.09,7.89,7.89,0,0,1,1.64-2.57,7.54,7.54,0,0,1,2.46-1.72,7.63,7.63,0,0,1,8.57,1.72,8,8,0,0,1,1.64,2.57,8.44,8.44,0,0,1,.59,3.09Z"/>
      <circle id="Ellipse_13" data-name="Ellipse 13" fill="#6138a0" cx="158" cy="44.91" r="29.47"/>
      <circle id="Ellipse_14" data-name="Ellipse 14" fill="#6138a0" cx="121.65" cy="56.72" r="21.81"/>
      <circle id="Ellipse_15" data-name="Ellipse 15" fill="#6138a0" cx="199.54" cy="62.21" r="28.4"/>
      <path id="Path_124" data-name="Path 124" fill="#6138a0" d="M135.23,126.85c0,8.32,8,15.06,18,15.06s17.95-6.74,17.95-15.06Z"/>
      <path id="Path_125" data-name="Path 125" fill="#9258ed" d="M52.74,138.61l-.14-.25L41.41,121.12A11.16,11.16,0,0,0,26,117.84h0a11.18,11.18,0,0,0-3.29,15.41l6.06,9.35a30.44,30.44,0,0,0-11.92,24.49c0,16.46,12.4,29.79,27.69,29.79s27.69-13.34,27.69-29.79C72.25,153.69,64,142.37,52.74,138.61Z"/>
      <circle id="Ellipse_16" data-name="Ellipse 16" fill="#9258ed" cx="48.05" cy="70.63" r="48.05"/>
      <circle id="Ellipse_17" data-name="Ellipse 17" fill="#a984ef" cx="47.64" cy="71.86" r="35.86"/>
      <circle id="Ellipse_18" data-name="Ellipse 18" fill="#fff" cx="47.64" cy="71.86" r="23.7"/>
      <path id="Path_126" class="heart" data-name="Path 126" fill="#e9444b" d="M35.09,64.13h0a5.5,5.5,0,0,0,0,7.77l5.18,5.18,5.86,5.86a2.71,2.71,0,0,0,3.82,0h0l5.87-5.86L61,71.9a5.5,5.5,0,0,0,0-7.77h0a5.52,5.52,0,0,0-7.78,0L48,69.31l-5.18-5.18A5.5,5.5,0,0,0,35.09,64.13Z"/>
      <path id="Path_127" data-name="Path 127" fill="#a984ef" d="M52.69,138.11l-.14-.25L41.37,120.61a11.12,11.12,0,0,0-19.69,2,11.19,11.19,0,0,1,15.41,3.29l11.19,17.24.14.25c11.3,3.76,19.51,15.08,19.51,28.47a31.33,31.33,0,0,1-4.87,16.88,30.77,30.77,0,0,0,9.16-22.13C72.2,153.19,64,141.86,52.69,138.11Z"/>
      <path id="Path_128" class="flooting-up" data-name="Path 128" fill="#e9444b" d="M86.86,24.72h0a2.25,2.25,0,0,0,3.17,0l2.11-2.11,2.39-2.39a1.09,1.09,0,0,0,0-1.55l-2.39-2.39L90,14.17a2.25,2.25,0,0,0-3.17,0h0a2.25,2.25,0,0,0,0,3.17L89,19.45l-2.11,2.11A2.22,2.22,0,0,0,86.86,24.72Z"/>
      <path id="Path_129" class="flooting-up" data-name="Path 129" fill="#fff" d="M104.79,164.39a6.6,6.6,0,0,1-1.33,2.08,6.15,6.15,0,0,1-6.94,1.4,6.19,6.19,0,0,1-2-1.4,6.6,6.6,0,0,1-1.33-2.08,7.17,7.17,0,0,1,0-5.16,6.76,6.76,0,0,1,1.33-2.09,6.42,6.42,0,0,1,2-1.4,6.14,6.14,0,0,1,6.93,1.4,6.74,6.74,0,0,1,1.84,4.67A6.92,6.92,0,0,1,104.79,164.39Zm-2.91-3.95a3.64,3.64,0,0,0-.65-1.11,3,3,0,0,0-1-.74,2.84,2.84,0,0,0-1.25-.27,3.08,3.08,0,0,0-1.27.27,3.15,3.15,0,0,0-1.65,1.85,4.15,4.15,0,0,0,0,2.74,3.64,3.64,0,0,0,.65,1.11,3,3,0,0,0,1,.74,2.93,2.93,0,0,0,1.27.27,3,3,0,0,0,1.25-.27,3.14,3.14,0,0,0,1-.74,3.35,3.35,0,0,0,.65-1.11A4,4,0,0,0,101.88,160.44Z"/>
      <path id="Path_130" class="flooting-down" data-name="Path 130" fill="#9258ed" d="M71.86,7.27A5.06,5.06,0,0,1,69.22,10a5.06,5.06,0,0,1-3.93,0,4.86,4.86,0,0,1-1.58-1.11,5.24,5.24,0,0,1-1.06-1.65,5.68,5.68,0,0,1,0-4.1A5.06,5.06,0,0,1,65.28.4a5,5,0,0,1,3.93,0,5,5,0,0,1,1.58,1.11,5.2,5.2,0,0,1,1.07,1.66,5.34,5.34,0,0,1,.39,2.05A5.57,5.57,0,0,1,71.86,7.27ZM69.55,4.13A2.8,2.8,0,0,0,69,3.25a2.41,2.41,0,0,0-.79-.59,2.36,2.36,0,0,0-2,0,2.45,2.45,0,0,0-.8.59,2.8,2.8,0,0,0-.52.88,3.39,3.39,0,0,0,0,2.18,2.8,2.8,0,0,0,.52.88,2.35,2.35,0,0,0,.8.59,2.36,2.36,0,0,0,2,0A2.41,2.41,0,0,0,69,7.19a2.7,2.7,0,0,0,.52-.88A3.26,3.26,0,0,0,69.55,4.13Z"/>
      <path id="Path_131" class="flooting-down" data-name="Path 131" fill="#6138a0" d="M80.08,132.72a3.88,3.88,0,0,0,1.31-.23,3.52,3.52,0,0,0,1.12-.66,3.1,3.1,0,0,0,.75-1,2.94,2.94,0,0,0,.28-1.27,2.87,2.87,0,0,0-.28-1.26,3.06,3.06,0,0,0-.75-1,3.52,3.52,0,0,0-1.12-.66,3.88,3.88,0,0,0-1.31-.23v-3.18a6.85,6.85,0,0,1,2.53.48,6.54,6.54,0,0,1,2.1,1.34,6.22,6.22,0,0,1,1.41,7,6.15,6.15,0,0,1-1.41,2,6.54,6.54,0,0,1-2.1,1.34,6.85,6.85,0,0,1-2.53.48Z"/>
      <path id="Path_132" data-name="Path 132" fill="#fff" d="M139.21,116.49a4.86,4.86,0,0,0,4.86,4.86h0v-9.73a4.87,4.87,0,0,0-4.86,4.87Z"/>
    </g>
  </g>
  <style>
      .heart {
        transform-origin: center center;
        animation: pulse .8s ease-in-out infinite alternate-reverse;
      }
      .flooting-up {
        animation: flooting-up 2s ease-in-out infinite alternate-reverse;
      }
      .flooting-down {
        animation: flooting-down 2s ease-in-out infinite alternate-reverse;
      }

      @keyframes pulse {
        0% {
          transform: scale(1) translate(0, 0);
        }
        100% {
          transform: scale(1.5) translate(10.3%, 7%);
        }
      }

      @keyframes flooting-up {
        0% {
          transform: translate(0, 0);
        }
        100% {
          transform: translate(-1%, -1%);
        }
      }

      @keyframes flooting-down {
        0% {
          transform: translate(0, 0);
        }
        100% {
          transform: translate(1%, 1%);
        }
      }
    </style>
</svg>