
<svg xmlns="http://www.w3.org/2000/svg" width="248.315" height="230.089" viewBox="0 0 248.315 230.089">
  <defs>
    <style>
      .prefix__cls-1{fill:#a984ef}.prefix__cls-2{fill:#6138a0}.prefix__cls-3{fill:#c7b1fc}.prefix__cls-4{fill:#fff}.prefix__cls-5{fill:#e9444b}
    </style>
  </defs>
  <g id="prefix__wiz2" transform="translate(-2237.749 -3330.034)">
    <circle id="prefix__Ellipse_19" cx="114.788" cy="114.788" r="114.788" class="prefix__cls-1" data-name="Ellipse 19" transform="translate(2256.488 3330.034)"/>
    <path id="prefix__Path_133" d="M2443.453 3456.022a75.792 75.792 0 0 0-49.577-18.485h-14.35c-39.236 0-68.52 33.933-72.5 72.158 12.714 4.922 23.254 5.2 37.707 5.2 42.3.005 79.176-24.57 98.72-58.873z" class="prefix__cls-2" data-name="Path 133" transform="translate(28.149 45.227)"/>
    <path id="prefix__Path_134" d="M2380.005 3437.2c-38.314 1.237-77.818 29.577-82.124 67.19 5.245 3.394 16.771 7.628 22.667 8.721 1.052-34.279 25.306-67.638 59.457-75.911z" class="prefix__cls-3" data-name="Path 134" transform="translate(25.298 45.084)"/>
    <rect id="prefix__Rectangle_12" width="26.981" height="60.801" class="prefix__cls-1" data-name="Rectangle 12" rx="9.495" transform="translate(2409.038 3439.297)"/>
    <path id="prefix__Path_135" d="M2388.546 3482.552h-2.415a13.66 13.66 0 0 1-13.66-13.66v-14.2a49.027 49.027 0 0 1-9.306.9h-.713a49.514 49.514 0 0 1-49.368-49.368v-34.444c5.112 0 9.258 8.409 9.258 13.521v14.276c.315 35.775 22.216 49.368 49.368 49.368h.713a49.018 49.018 0 0 0 9.305-.9v14.2c0 7.545.7 20.308 8.24 20.308" class="prefix__cls-4" data-name="Path 135" transform="translate(31.694 17.561)"/>
    <path id="prefix__Path_136" d="M2334.571 3342.32a6.107 6.107 0 0 1 1.562-.2h56.222a30.858 30.858 0 0 1 31.065 29.863c0 10.417.739 18.938-19.225 18.938h-8.134a19.138 19.138 0 0 1-19.225-18.938 12.476 12.476 0 0 0-12.57-12.381h-28.133a6.161 6.161 0 0 1-1.562-.2c-2.239-.59-8-2.677-8-8.545s5.761-7.947 8-8.537z" class="prefix__cls-2" data-name="Path 136" transform="translate(37.37 5.086)"/>
    <path id="prefix__Path_137" d="M2329.874 3350.863c0-5.867 5.758-7.953 8-8.543a6.118 6.118 0 0 1 1.562-.2h-7.709a6.114 6.114 0 0 0-1.562.2c-2.239.59-8 2.676-8 8.543s5.758 7.955 8 8.545a6.168 6.168 0 0 0 1.562.2h7.709a6.173 6.173 0 0 1-1.562-.2c-2.242-.59-8-2.677-8-8.545z" class="prefix__cls-3" data-name="Path 137" transform="translate(35.515 5.086)"/>
    <ellipse id="prefix__Ellipse_20" cx="16.14" cy="24.998" class="prefix__cls-2" data-name="Ellipse 20" rx="16.14" ry="24.998" transform="translate(2441.172 3370.435)"/>
    <path id="prefix__Path_138" d="M2398.359 3392.342c0 8.743-7.973 15.829-17.809 15.829v-31.659c9.836 0 17.809 7.088 17.809 15.83z" class="prefix__cls-1" data-name="Path 138" transform="translate(60.078 19.553)"/>
    <path id="prefix__Path_139" d="M2389.858 3390a7.914 7.914 0 0 1-7.915 7.915v-15.829a7.914 7.914 0 0 1 7.915 7.914z" class="prefix__cls-4" data-name="Path 139" transform="translate(60.664 21.897)"/>
    <path id="prefix__Path_140" d="M2347.427 3406.437a7.6 7.6 0 0 1 7.6 7.605h-15.207a7.6 7.6 0 0 1 7.607-7.605z" class="prefix__cls-4" data-name="Path 140" transform="translate(42.943 32.144)"/>
    <path id="prefix__Path_141" d="M2246.351 3360.7a2.391 2.391 0 0 0 3.37 0l2.246-2.246 2.542-2.542a1.17 1.17 0 0 0 0-1.655l-2.542-2.541-2.246-2.246a2.388 2.388 0 0 0-3.37 0 2.389 2.389 0 0 0 0 3.369l2.246 2.245-2.246 2.246a2.39 2.39 0 0 0 0 3.37z" class="prefix__cls-5" data-name="Path 141" transform="translate(3.327 7.883)"/>
    <path id="prefix__Path_142" d="M2307.913 3446.513a4.336 4.336 0 0 1-.89 1.4 4.136 4.136 0 0 1-1.333.931 4.189 4.189 0 0 1-3.313 0 4.126 4.126 0 0 1-1.333-.931 4.329 4.329 0 0 1-.89-1.4 4.787 4.787 0 0 1 0-3.453 4.337 4.337 0 0 1 .89-1.4 4.167 4.167 0 0 1 1.325-.932 3.967 3.967 0 0 1 1.648-.341 4.03 4.03 0 0 1 1.657.341 4.15 4.15 0 0 1 1.334.932 4.5 4.5 0 0 1 1.229 3.123 4.574 4.574 0 0 1-.324 1.73zm-1.945-2.643a2.272 2.272 0 0 0-.435-.741 2.066 2.066 0 0 0-.664-.5 1.91 1.91 0 0 0-.836-.183 1.967 1.967 0 0 0-.845.183 2.029 2.029 0 0 0-.672.5 2.314 2.314 0 0 0-.436.741 2.757 2.757 0 0 0 0 1.831 2.308 2.308 0 0 0 .436.742 2.038 2.038 0 0 0 .672.5 1.988 1.988 0 0 0 .845.182 1.93 1.93 0 0 0 .836-.182 2.076 2.076 0 0 0 .664-.5 2.267 2.267 0 0 0 .435-.742 2.733 2.733 0 0 0 0-1.831z" class="prefix__cls-4" data-name="Path 142" transform="translate(4.118 56.428)"/>
    <path id="prefix__Path_144" d="M2272.658 3358.711a5.806 5.806 0 0 1-1.189 1.87 5.61 5.61 0 0 1-1.787 1.249 5.611 5.611 0 0 1-4.438 0 5.583 5.583 0 0 1-1.787-1.249 5.8 5.8 0 0 1-1.192-1.87 6.409 6.409 0 0 1 0-4.625 5.814 5.814 0 0 1 1.192-1.871 5.608 5.608 0 0 1 1.773-1.25 5.34 5.34 0 0 1 2.209-.456 5.4 5.4 0 0 1 2.218.456 5.557 5.557 0 0 1 1.79 1.25 6.036 6.036 0 0 1 1.646 4.183 6.119 6.119 0 0 1-.435 2.313zm-2.6-3.539a3.072 3.072 0 0 0-.583-1 2.827 2.827 0 0 0-.888-.665 2.6 2.6 0 0 0-1.122-.246 2.664 2.664 0 0 0-1.131.246 2.8 2.8 0 0 0-.9.665 3.126 3.126 0 0 0-.583 1 3.677 3.677 0 0 0 0 2.452 3.073 3.073 0 0 0 .583.992 2.79 2.79 0 0 0 .9.668 2.668 2.668 0 0 0 1.131.243 2.606 2.606 0 0 0 1.122-.243 2.815 2.815 0 0 0 .888-.668 3.02 3.02 0 0 0 .583-.992 3.653 3.653 0 0 0 0-2.452z" class="prefix__cls-2" data-name="Path 144" transform="translate(9.132 -14.002)"/>
    <path id="prefix__Path_145" d="M2306.382 3429.523a4.216 4.216 0 0 0 1.392-.246 3.656 3.656 0 0 0 1.188-.7 3.268 3.268 0 0 0 .8-1.077 3.162 3.162 0 0 0 .294-1.355 3.067 3.067 0 0 0-.294-1.342 3.3 3.3 0 0 0-.8-1.063 3.657 3.657 0 0 0-1.187-.7 4.235 4.235 0 0 0-1.392-.246v-3.387a7.369 7.369 0 0 1 2.692.514 6.941 6.941 0 0 1 2.237 1.427 6.65 6.65 0 0 1 1.5 2.14 6.753 6.753 0 0 1 0 5.312 6.66 6.66 0 0 1-1.5 2.14 6.974 6.974 0 0 1-2.237 1.427 7.333 7.333 0 0 1-2.692.513z" class="prefix__cls-2" data-name="Path 145" transform="translate(17.874 57.601)"/>
    <path id="prefix__Path_146" d="M2293.073 3359.675a4.23 4.23 0 0 0-1.392.246 3.666 3.666 0 0 0-1.188.7 3.294 3.294 0 0 0-.8 1.077 3.162 3.162 0 0 0-.294 1.357 3.059 3.059 0 0 0 .294 1.341 3.325 3.325 0 0 0 .8 1.063 3.67 3.67 0 0 0 1.188.7 4.231 4.231 0 0 0 1.392.246v3.387a7.368 7.368 0 0 1-2.692-.515 6.937 6.937 0 0 1-2.236-1.426 6.635 6.635 0 0 1-1.5-2.14 6.74 6.74 0 0 1 0-5.312 6.667 6.667 0 0 1 1.5-2.14 6.971 6.971 0 0 1 2.236-1.427 7.342 7.342 0 0 1 2.692-.513z" class="prefix__cls-2" data-name="Path 146" transform="translate(20.343 11.058)"/>
    <circle id="prefix__Ellipse_21" cx="4.247" cy="4.247" r="4.247" class="prefix__cls-2" data-name="Ellipse 21" transform="translate(2360.545 3406.752)"/>
    <circle id="prefix__Ellipse_22" cx="4.247" cy="4.247" r="4.247" class="prefix__cls-2" data-name="Ellipse 22" transform="translate(2400.549 3406.752)"/>
    <g id="prefix__Group_44" data-name="Group 44" transform="translate(2345.503 3387.807)">
      <path id="prefix__Path_147" d="M2331 3405.509a17.4 17.4 0 1 1 17.4-17.409 17.425 17.425 0 0 1-17.4 17.409zm0-30.548a13.143 13.143 0 1 0 13.143 13.143 13.158 13.158 0 0 0-13.143-13.143z" class="prefix__cls-2" data-name="Path 147" transform="translate(-2313.594 -3370.699)"/>
    </g>
    <g id="prefix__Group_45" data-name="Group 45" transform="translate(2384.844 3387.807)">
      <path id="prefix__Path_148" d="M2358.692 3405.509a17.4 17.4 0 1 1 17.408-17.409 17.425 17.425 0 0 1-17.408 17.409zm0-30.548a13.143 13.143 0 1 0 13.143 13.143 13.16 13.16 0 0 0-13.143-13.143z" class="prefix__cls-2" data-name="Path 148" transform="translate(-2341.285 -3370.699)"/>
    </g>
    <g id="prefix__Group_46" data-name="Group 46" transform="translate(2237.749 3380.99)">
      <rect id="prefix__Rectangle_13" width="81.925" height="109.697" class="prefix__cls-1" data-name="Rectangle 13" rx="40.963"/>
      <rect id="prefix__Rectangle_14" width="59.236" height="79.316" class="prefix__cls-3" data-name="Rectangle 14" rx="29.618" transform="translate(11.345 15.19)"/>
      <path id="prefix__Path_149" d="M2284.322 3401.1a13.85 13.85 0 0 0-27.7 0v9.514h27.7z" class="prefix__cls-5" data-name="Path 149" transform="translate(-2229.809 -3356.921)"/>
      <path id="prefix__Path_150" d="M2270.472 3428.138a13.891 13.891 0 0 0 13.85-13.85v-10.6h-27.7v10.6a13.891 13.891 0 0 0 13.85 13.85z" class="prefix__cls-4" data-name="Path 150" transform="translate(-2229.809 -3350.002)"/>
    </g>
  </g>
</svg>
